<svg width="446" height="316" viewBox="0 0 446 316" fill="none" xmlns="http://www.w3.org/2000/svg">
<rect width="446" height="316" rx="5" fill="#FFFDC2"/>
<path d="M44.541 287V267.094H40.7402V275.256H35.1074V267.094H31.293V287H35.1074V278.373H40.7402V287H44.541ZM50.6934 292.975C51.459 292.975 52.1198 292.847 52.6758 292.592C53.2409 292.337 53.7194 292.022 54.1113 291.648C54.5033 291.275 54.8268 290.869 55.082 290.432C55.3464 289.994 55.5605 289.589 55.7246 289.215L63.2305 272.207H59.0332L55.6562 280.902L55.0957 282.379L54.6855 280.875L51.2949 272.207H47.1387L53.4004 286.371L52.5254 287.998C52.416 288.199 52.3203 288.354 52.2383 288.463C52.1654 288.572 52.0469 288.736 51.8828 288.955C51.7188 289.174 51.5182 289.374 51.2812 289.557C51.0534 289.748 50.7891 289.844 50.4883 289.844C50.3424 289.844 50.1465 289.835 49.9004 289.816C49.6634 289.807 49.4674 289.803 49.3125 289.803L48.8477 292.701C49.1758 292.792 49.472 292.861 49.7363 292.906C50.0098 292.952 50.3288 292.975 50.6934 292.975ZM78.502 279.754V279.467C78.502 278.574 78.4199 277.735 78.2559 276.951C78.1009 276.167 77.8594 275.461 77.5312 274.832C77.3216 274.44 77.0801 274.08 76.8066 273.752C76.5332 273.415 76.2279 273.128 75.8906 272.891C75.4714 272.581 74.9928 272.344 74.4551 272.18C73.9264 272.016 73.3431 271.934 72.7051 271.934C72.2402 271.934 71.8073 271.984 71.4062 272.084C71.0143 272.175 70.6497 272.316 70.3125 272.508C70.0755 272.635 69.8522 272.79 69.6426 272.973C69.4329 273.146 69.237 273.337 69.0547 273.547V266H65.2539V287H68.6719L68.8496 285.428C69.0046 285.628 69.1686 285.815 69.3418 285.988C69.515 286.152 69.7018 286.303 69.9023 286.439C70.276 286.713 70.6953 286.918 71.1602 287.055C71.6341 287.201 72.1582 287.273 72.7324 287.273C73.3613 287.273 73.9355 287.191 74.4551 287.027C74.9837 286.872 75.4577 286.645 75.877 286.344C76.3418 286.025 76.7428 285.624 77.0801 285.141C77.4264 284.658 77.7044 284.12 77.9141 283.527C78.1055 282.99 78.2513 282.406 78.3516 281.777C78.4518 281.139 78.502 280.465 78.502 279.754ZM74.7012 279.467V279.754C74.7012 280.137 74.6829 280.506 74.6465 280.861C74.6191 281.217 74.569 281.545 74.4961 281.846C74.4049 282.256 74.2682 282.625 74.0859 282.953C73.9128 283.272 73.6849 283.532 73.4023 283.732C73.2018 283.878 72.9648 283.992 72.6914 284.074C72.418 284.156 72.1126 284.197 71.7754 284.197C71.3835 284.197 71.0326 284.152 70.7227 284.061C70.4219 283.969 70.1576 283.837 69.9297 283.664C69.7383 283.527 69.5697 283.368 69.4238 283.186C69.2871 282.994 69.1641 282.785 69.0547 282.557V276.664C69.1367 276.491 69.2279 276.331 69.3281 276.186C69.4284 276.031 69.5378 275.894 69.6562 275.775C69.9023 275.529 70.1986 275.342 70.5449 275.215C70.8913 275.087 71.2923 275.023 71.748 275.023C72.0853 275.023 72.3861 275.064 72.6504 275.146C72.9147 275.219 73.1517 275.333 73.3613 275.488C73.6803 275.734 73.9173 276.008 74.0723 276.309C74.2363 276.6 74.3685 276.933 74.4688 277.307C74.5508 277.626 74.61 277.967 74.6465 278.332C74.6829 278.697 74.7012 279.075 74.7012 279.467ZM92.6113 271.934C91.6178 271.934 90.7018 272.175 89.8633 272.658C89.0247 273.132 88.3047 273.788 87.7031 274.627L87.6758 274.299L87.5254 272.207H83.9844V287H87.7852V278.113C87.9583 277.694 88.1771 277.329 88.4414 277.02C88.7057 276.71 89.0247 276.454 89.3984 276.254C89.7083 276.081 90.0592 275.953 90.4512 275.871C90.8522 275.78 91.2988 275.734 91.791 275.734C92.265 275.734 92.7617 275.766 93.2812 275.83C93.8099 275.885 94.3249 275.971 94.8262 276.09L95.3867 272.303C95.0859 272.212 94.6895 272.13 94.1973 272.057C93.7142 271.975 93.1855 271.934 92.6113 271.934ZM99.8164 272.207V275.311H104.027V283.91H99.8164V287H111.875V283.91H107.869V272.207H99.8164ZM103.754 268.42C103.754 268.712 103.804 268.985 103.904 269.24C104.014 269.486 104.164 269.696 104.355 269.869C104.547 270.051 104.775 270.193 105.039 270.293C105.312 270.393 105.613 270.443 105.941 270.443C106.616 270.443 107.149 270.257 107.541 269.883C107.942 269.5 108.143 269.012 108.143 268.42C108.143 267.827 107.942 267.344 107.541 266.971C107.149 266.588 106.616 266.396 105.941 266.396C105.613 266.396 105.312 266.447 105.039 266.547C104.775 266.647 104.547 266.784 104.355 266.957C104.164 267.139 104.014 267.358 103.904 267.613C103.804 267.859 103.754 268.128 103.754 268.42ZM115.225 279.494V279.781C115.225 280.857 115.357 281.855 115.621 282.775C115.885 283.687 116.268 284.475 116.77 285.141C117.262 285.806 117.863 286.33 118.574 286.713C119.294 287.087 120.105 287.273 121.008 287.273C121.837 287.273 122.566 287.114 123.195 286.795C123.824 286.476 124.371 286.029 124.836 285.455L125.027 287H128.459V266H124.645V273.533C124.189 273.023 123.665 272.631 123.072 272.357C122.489 272.075 121.81 271.934 121.035 271.934C120.115 271.934 119.294 272.116 118.574 272.48C117.863 272.845 117.257 273.36 116.756 274.025C116.255 274.691 115.872 275.488 115.607 276.418C115.352 277.348 115.225 278.373 115.225 279.494ZM119.025 279.781V279.494C119.025 278.874 119.08 278.296 119.189 277.758C119.299 277.211 119.472 276.732 119.709 276.322C119.946 275.921 120.251 275.607 120.625 275.379C121.008 275.142 121.468 275.023 122.006 275.023C122.653 275.023 123.191 275.165 123.619 275.447C124.048 275.721 124.389 276.108 124.645 276.609V282.598C124.389 283.09 124.043 283.477 123.605 283.76C123.177 284.042 122.635 284.184 121.979 284.184C121.441 284.184 120.985 284.07 120.611 283.842C120.238 283.614 119.932 283.299 119.695 282.898C119.458 282.507 119.285 282.046 119.176 281.518C119.076 280.98 119.025 280.401 119.025 279.781ZM153.232 283.896V267.094H149.377V287H162.557V283.896H153.232ZM165.551 279.467V279.754C165.551 280.839 165.706 281.841 166.016 282.762C166.326 283.673 166.781 284.466 167.383 285.141C167.975 285.815 168.704 286.344 169.57 286.727C170.445 287.1 171.439 287.287 172.551 287.287C173.654 287.287 174.638 287.1 175.504 286.727C176.37 286.344 177.099 285.815 177.691 285.141C178.284 284.466 178.735 283.673 179.045 282.762C179.355 281.841 179.51 280.839 179.51 279.754V279.467C179.51 278.391 179.355 277.398 179.045 276.486C178.735 275.566 178.284 274.768 177.691 274.094C177.09 273.419 176.356 272.891 175.49 272.508C174.624 272.125 173.635 271.934 172.523 271.934C171.411 271.934 170.423 272.125 169.557 272.508C168.7 272.891 167.975 273.419 167.383 274.094C166.781 274.768 166.326 275.566 166.016 276.486C165.706 277.398 165.551 278.391 165.551 279.467ZM169.352 279.754V279.467C169.352 278.865 169.411 278.296 169.529 277.758C169.648 277.22 169.835 276.746 170.09 276.336C170.345 275.926 170.673 275.602 171.074 275.365C171.475 275.128 171.958 275.01 172.523 275.01C173.098 275.01 173.585 275.128 173.986 275.365C174.387 275.602 174.715 275.926 174.971 276.336C175.217 276.746 175.399 277.22 175.518 277.758C175.636 278.296 175.695 278.865 175.695 279.467V279.754C175.695 280.374 175.636 280.957 175.518 281.504C175.399 282.042 175.217 282.511 174.971 282.912C174.715 283.322 174.387 283.646 173.986 283.883C173.585 284.12 173.107 284.238 172.551 284.238C171.977 284.238 171.484 284.12 171.074 283.883C170.673 283.646 170.345 283.322 170.09 282.912C169.835 282.511 169.648 282.042 169.529 281.504C169.411 280.957 169.352 280.374 169.352 279.754ZM189.436 284.238C188.825 284.238 188.319 284.115 187.918 283.869C187.526 283.623 187.216 283.295 186.988 282.885C186.751 282.484 186.587 282.019 186.496 281.49C186.405 280.952 186.359 280.396 186.359 279.822V279.412C186.359 278.847 186.405 278.3 186.496 277.771C186.596 277.243 186.765 276.773 187.002 276.363C187.23 275.953 187.54 275.625 187.932 275.379C188.324 275.133 188.82 275.01 189.422 275.01C189.832 275.01 190.21 275.083 190.557 275.229C190.903 275.365 191.199 275.552 191.445 275.789C191.691 276.026 191.878 276.309 192.006 276.637C192.133 276.965 192.188 277.311 192.17 277.676H195.752C195.77 276.801 195.624 276.012 195.314 275.311C195.005 274.6 194.572 273.993 194.016 273.492C193.451 273 192.781 272.617 192.006 272.344C191.231 272.07 190.388 271.934 189.477 271.934C188.337 271.934 187.335 272.13 186.469 272.521C185.612 272.913 184.892 273.447 184.309 274.121C183.725 274.796 183.288 275.589 182.996 276.5C182.704 277.402 182.559 278.373 182.559 279.412V279.822C182.559 280.861 182.704 281.837 182.996 282.748C183.297 283.65 183.739 284.439 184.322 285.113C184.896 285.788 185.617 286.321 186.482 286.713C187.348 287.096 188.355 287.287 189.504 287.287C190.352 287.287 191.154 287.155 191.91 286.891C192.676 286.617 193.346 286.243 193.92 285.77C194.494 285.296 194.945 284.73 195.273 284.074C195.611 283.418 195.77 282.707 195.752 281.941H192.17C192.188 282.288 192.124 282.602 191.979 282.885C191.842 283.167 191.646 283.409 191.391 283.609C191.135 283.81 190.839 283.965 190.502 284.074C190.165 284.184 189.809 284.238 189.436 284.238ZM208.945 287H212.801V286.768C212.609 286.394 212.464 285.947 212.363 285.428C212.263 284.908 212.213 284.252 212.213 283.459V277.115C212.213 276.258 212.053 275.507 211.734 274.859C211.415 274.203 210.973 273.661 210.408 273.232C209.843 272.804 209.173 272.48 208.398 272.262C207.633 272.043 206.803 271.934 205.91 271.934C204.917 271.934 204.033 272.061 203.258 272.316C202.492 272.562 201.845 272.9 201.316 273.328C200.779 273.757 200.368 274.253 200.086 274.818C199.812 275.383 199.676 275.98 199.676 276.609H203.477C203.477 276.345 203.513 276.104 203.586 275.885C203.668 275.666 203.791 275.479 203.955 275.324C204.137 275.151 204.374 275.019 204.666 274.928C204.958 274.827 205.304 274.777 205.705 274.777C206.161 274.777 206.557 274.837 206.895 274.955C207.241 275.064 207.528 275.224 207.756 275.434C207.975 275.634 208.139 275.876 208.248 276.158C208.357 276.432 208.412 276.742 208.412 277.088V277.963H206.293C205.199 277.963 204.229 278.063 203.381 278.264C202.542 278.455 201.836 278.738 201.262 279.111C200.624 279.521 200.145 280.046 199.826 280.684C199.507 281.312 199.348 282.037 199.348 282.857C199.348 283.495 199.475 284.088 199.73 284.635C199.986 285.173 200.341 285.637 200.797 286.029C201.253 286.421 201.795 286.727 202.424 286.945C203.062 287.164 203.759 287.273 204.516 287.273C204.98 287.273 205.413 287.228 205.814 287.137C206.215 287.055 206.585 286.936 206.922 286.781C207.25 286.635 207.551 286.462 207.824 286.262C208.098 286.061 208.339 285.847 208.549 285.619C208.594 285.883 208.649 286.134 208.713 286.371C208.777 286.608 208.854 286.818 208.945 287ZM205.322 284.334C204.967 284.334 204.652 284.293 204.379 284.211C204.115 284.12 203.891 284.001 203.709 283.855C203.527 283.701 203.385 283.514 203.285 283.295C203.194 283.067 203.148 282.821 203.148 282.557C203.148 282.219 203.212 281.91 203.34 281.627C203.467 281.335 203.663 281.085 203.928 280.875C204.192 280.674 204.534 280.52 204.953 280.41C205.372 280.292 205.878 280.232 206.471 280.232H208.412V282.775C208.303 282.967 208.152 283.158 207.961 283.35C207.77 283.532 207.542 283.696 207.277 283.842C207.013 283.988 206.717 284.106 206.389 284.197C206.061 284.288 205.705 284.334 205.322 284.334ZM223.492 268.584H219.691V272.207H216.314V275.01H219.691V281.736C219.691 282.712 219.819 283.55 220.074 284.252C220.329 284.945 220.694 285.514 221.168 285.961C221.633 286.417 222.193 286.754 222.85 286.973C223.515 287.182 224.253 287.287 225.064 287.287C225.484 287.287 225.908 287.264 226.336 287.219C226.773 287.182 227.193 287.128 227.594 287.055C227.995 286.982 228.373 286.891 228.729 286.781C229.084 286.663 229.394 286.526 229.658 286.371L229.289 283.76C229.116 283.805 228.906 283.851 228.66 283.896C228.423 283.942 228.168 283.983 227.895 284.02C227.612 284.065 227.316 284.102 227.006 284.129C226.705 284.156 226.409 284.17 226.117 284.17C225.716 284.17 225.352 284.124 225.023 284.033C224.704 283.942 224.431 283.787 224.203 283.568C223.975 283.359 223.798 283.076 223.67 282.721C223.551 282.356 223.492 281.905 223.492 281.367V275.01H229.016V272.207H223.492V268.584ZM234.348 272.207V275.311H238.559V283.91H234.348V287H246.406V283.91H242.4V272.207H234.348ZM238.285 268.42C238.285 268.712 238.335 268.985 238.436 269.24C238.545 269.486 238.695 269.696 238.887 269.869C239.078 270.051 239.306 270.193 239.57 270.293C239.844 270.393 240.145 270.443 240.473 270.443C241.147 270.443 241.68 270.257 242.072 269.883C242.473 269.5 242.674 269.012 242.674 268.42C242.674 267.827 242.473 267.344 242.072 266.971C241.68 266.588 241.147 266.396 240.473 266.396C240.145 266.396 239.844 266.447 239.57 266.547C239.306 266.647 239.078 266.784 238.887 266.957C238.695 267.139 238.545 267.358 238.436 267.613C238.335 267.859 238.285 268.128 238.285 268.42ZM249.633 279.467V279.754C249.633 280.839 249.788 281.841 250.098 282.762C250.408 283.673 250.863 284.466 251.465 285.141C252.057 285.815 252.786 286.344 253.652 286.727C254.527 287.1 255.521 287.287 256.633 287.287C257.736 287.287 258.72 287.1 259.586 286.727C260.452 286.344 261.181 285.815 261.773 285.141C262.366 284.466 262.817 283.673 263.127 282.762C263.437 281.841 263.592 280.839 263.592 279.754V279.467C263.592 278.391 263.437 277.398 263.127 276.486C262.817 275.566 262.366 274.768 261.773 274.094C261.172 273.419 260.438 272.891 259.572 272.508C258.706 272.125 257.717 271.934 256.605 271.934C255.493 271.934 254.505 272.125 253.639 272.508C252.782 272.891 252.057 273.419 251.465 274.094C250.863 274.768 250.408 275.566 250.098 276.486C249.788 277.398 249.633 278.391 249.633 279.467ZM253.434 279.754V279.467C253.434 278.865 253.493 278.296 253.611 277.758C253.73 277.22 253.917 276.746 254.172 276.336C254.427 275.926 254.755 275.602 255.156 275.365C255.557 275.128 256.04 275.01 256.605 275.01C257.18 275.01 257.667 275.128 258.068 275.365C258.469 275.602 258.798 275.926 259.053 276.336C259.299 276.746 259.481 277.22 259.6 277.758C259.718 278.296 259.777 278.865 259.777 279.467V279.754C259.777 280.374 259.718 280.957 259.6 281.504C259.481 282.042 259.299 282.511 259.053 282.912C258.798 283.322 258.469 283.646 258.068 283.883C257.667 284.12 257.189 284.238 256.633 284.238C256.059 284.238 255.566 284.12 255.156 283.883C254.755 283.646 254.427 283.322 254.172 282.912C253.917 282.511 253.73 282.042 253.611 281.504C253.493 280.957 253.434 280.374 253.434 279.754ZM266.969 287H270.783V276.486C270.911 276.286 271.052 276.104 271.207 275.939C271.362 275.775 271.535 275.634 271.727 275.516C271.964 275.352 272.232 275.229 272.533 275.146C272.843 275.064 273.18 275.023 273.545 275.023C273.982 275.023 274.374 275.069 274.721 275.16C275.067 275.242 275.363 275.393 275.609 275.611C275.855 275.83 276.042 276.131 276.17 276.514C276.307 276.887 276.375 277.366 276.375 277.949V287H280.176V277.895C280.176 276.819 280.048 275.908 279.793 275.16C279.547 274.404 279.201 273.784 278.754 273.301C278.298 272.827 277.76 272.48 277.141 272.262C276.521 272.043 275.837 271.934 275.09 271.934C274.507 271.934 273.955 272.016 273.436 272.18C272.916 272.344 272.438 272.581 272 272.891C271.745 273.073 271.503 273.278 271.275 273.506C271.048 273.734 270.838 273.984 270.646 274.258L270.414 272.207H266.969V287ZM305.182 267.094H300.41V287H303.938V281.107L303.773 272.166L306.111 280.438H308.012L310.623 271.797L310.459 281.107V287H313.986V267.094H309.215L307.068 274.572L305.182 267.094ZM326.66 287H330.516V286.768C330.324 286.394 330.178 285.947 330.078 285.428C329.978 284.908 329.928 284.252 329.928 283.459V277.115C329.928 276.258 329.768 275.507 329.449 274.859C329.13 274.203 328.688 273.661 328.123 273.232C327.558 272.804 326.888 272.48 326.113 272.262C325.348 272.043 324.518 271.934 323.625 271.934C322.632 271.934 321.747 272.061 320.973 272.316C320.207 272.562 319.56 272.9 319.031 273.328C318.493 273.757 318.083 274.253 317.801 274.818C317.527 275.383 317.391 275.98 317.391 276.609H321.191C321.191 276.345 321.228 276.104 321.301 275.885C321.383 275.666 321.506 275.479 321.67 275.324C321.852 275.151 322.089 275.019 322.381 274.928C322.673 274.827 323.019 274.777 323.42 274.777C323.876 274.777 324.272 274.837 324.609 274.955C324.956 275.064 325.243 275.224 325.471 275.434C325.689 275.634 325.854 275.876 325.963 276.158C326.072 276.432 326.127 276.742 326.127 277.088V277.963H324.008C322.914 277.963 321.943 278.063 321.096 278.264C320.257 278.455 319.551 278.738 318.977 279.111C318.339 279.521 317.86 280.046 317.541 280.684C317.222 281.312 317.062 282.037 317.062 282.857C317.062 283.495 317.19 284.088 317.445 284.635C317.701 285.173 318.056 285.637 318.512 286.029C318.967 286.421 319.51 286.727 320.139 286.945C320.777 287.164 321.474 287.273 322.23 287.273C322.695 287.273 323.128 287.228 323.529 287.137C323.93 287.055 324.299 286.936 324.637 286.781C324.965 286.635 325.266 286.462 325.539 286.262C325.812 286.061 326.054 285.847 326.264 285.619C326.309 285.883 326.364 286.134 326.428 286.371C326.492 286.608 326.569 286.818 326.66 287ZM323.037 284.334C322.682 284.334 322.367 284.293 322.094 284.211C321.829 284.12 321.606 284.001 321.424 283.855C321.242 283.701 321.1 283.514 321 283.295C320.909 283.067 320.863 282.821 320.863 282.557C320.863 282.219 320.927 281.91 321.055 281.627C321.182 281.335 321.378 281.085 321.643 280.875C321.907 280.674 322.249 280.52 322.668 280.41C323.087 280.292 323.593 280.232 324.186 280.232H326.127V282.775C326.018 282.967 325.867 283.158 325.676 283.35C325.484 283.532 325.257 283.696 324.992 283.842C324.728 283.988 324.432 284.106 324.104 284.197C323.775 284.288 323.42 284.334 323.037 284.334ZM334.234 287H338.049V276.486C338.176 276.286 338.318 276.104 338.473 275.939C338.628 275.775 338.801 275.634 338.992 275.516C339.229 275.352 339.498 275.229 339.799 275.146C340.109 275.064 340.446 275.023 340.811 275.023C341.248 275.023 341.64 275.069 341.986 275.16C342.333 275.242 342.629 275.393 342.875 275.611C343.121 275.83 343.308 276.131 343.436 276.514C343.572 276.887 343.641 277.366 343.641 277.949V287H347.441V277.895C347.441 276.819 347.314 275.908 347.059 275.16C346.812 274.404 346.466 273.784 346.02 273.301C345.564 272.827 345.026 272.48 344.406 272.262C343.786 272.043 343.103 271.934 342.355 271.934C341.772 271.934 341.221 272.016 340.701 272.18C340.182 272.344 339.703 272.581 339.266 272.891C339.01 273.073 338.769 273.278 338.541 273.506C338.313 273.734 338.104 273.984 337.912 274.258L337.68 272.207H334.234V287ZM360.293 287H364.148V286.768C363.957 286.394 363.811 285.947 363.711 285.428C363.611 284.908 363.561 284.252 363.561 283.459V277.115C363.561 276.258 363.401 275.507 363.082 274.859C362.763 274.203 362.321 273.661 361.756 273.232C361.191 272.804 360.521 272.48 359.746 272.262C358.98 272.043 358.151 271.934 357.258 271.934C356.264 271.934 355.38 272.061 354.605 272.316C353.84 272.562 353.193 272.9 352.664 273.328C352.126 273.757 351.716 274.253 351.434 274.818C351.16 275.383 351.023 275.98 351.023 276.609H354.824C354.824 276.345 354.861 276.104 354.934 275.885C355.016 275.666 355.139 275.479 355.303 275.324C355.485 275.151 355.722 275.019 356.014 274.928C356.305 274.827 356.652 274.777 357.053 274.777C357.508 274.777 357.905 274.837 358.242 274.955C358.589 275.064 358.876 275.224 359.104 275.434C359.322 275.634 359.486 275.876 359.596 276.158C359.705 276.432 359.76 276.742 359.76 277.088V277.963H357.641C356.547 277.963 355.576 278.063 354.729 278.264C353.89 278.455 353.184 278.738 352.609 279.111C351.971 279.521 351.493 280.046 351.174 280.684C350.855 281.312 350.695 282.037 350.695 282.857C350.695 283.495 350.823 284.088 351.078 284.635C351.333 285.173 351.689 285.637 352.145 286.029C352.6 286.421 353.143 286.727 353.771 286.945C354.41 287.164 355.107 287.273 355.863 287.273C356.328 287.273 356.761 287.228 357.162 287.137C357.563 287.055 357.932 286.936 358.27 286.781C358.598 286.635 358.898 286.462 359.172 286.262C359.445 286.061 359.687 285.847 359.896 285.619C359.942 285.883 359.997 286.134 360.061 286.371C360.124 286.608 360.202 286.818 360.293 287ZM356.67 284.334C356.314 284.334 356 284.293 355.727 284.211C355.462 284.12 355.239 284.001 355.057 283.855C354.874 283.701 354.733 283.514 354.633 283.295C354.542 283.067 354.496 282.821 354.496 282.557C354.496 282.219 354.56 281.91 354.688 281.627C354.815 281.335 355.011 281.085 355.275 280.875C355.54 280.674 355.882 280.52 356.301 280.41C356.72 280.292 357.226 280.232 357.818 280.232H359.76V282.775C359.65 282.967 359.5 283.158 359.309 283.35C359.117 283.532 358.889 283.696 358.625 283.842C358.361 283.988 358.064 284.106 357.736 284.197C357.408 284.288 357.053 284.334 356.67 284.334ZM367.484 279.494V279.781C367.484 280.857 367.621 281.855 367.895 282.775C368.177 283.687 368.578 284.475 369.098 285.141C369.617 285.806 370.242 286.33 370.971 286.713C371.709 287.087 372.538 287.273 373.459 287.273C373.924 287.273 374.357 287.223 374.758 287.123C375.168 287.023 375.542 286.882 375.879 286.699C376.107 286.572 376.321 286.426 376.521 286.262C376.722 286.098 376.913 285.915 377.096 285.715V286.562C377.096 287.064 377.023 287.515 376.877 287.916C376.74 288.317 376.54 288.654 376.275 288.928C375.984 289.229 375.619 289.456 375.182 289.611C374.753 289.766 374.261 289.844 373.705 289.844C373.359 289.844 373.021 289.807 372.693 289.734C372.374 289.671 372.064 289.57 371.764 289.434C371.454 289.297 371.158 289.119 370.875 288.9C370.592 288.691 370.328 288.445 370.082 288.162L368.373 290.473C368.692 290.883 369.075 291.234 369.521 291.525C369.968 291.826 370.442 292.072 370.943 292.264C371.445 292.455 371.951 292.596 372.461 292.688C372.971 292.779 373.45 292.824 373.896 292.824C374.936 292.824 375.883 292.683 376.74 292.4C377.606 292.127 378.349 291.721 378.969 291.184C379.579 290.646 380.053 289.985 380.391 289.201C380.737 288.417 380.91 287.524 380.91 286.521V272.207H377.451L377.301 273.615C377.118 273.387 376.918 273.182 376.699 273C376.48 272.809 376.243 272.645 375.988 272.508C375.651 272.316 375.273 272.175 374.854 272.084C374.443 271.984 373.988 271.934 373.486 271.934C372.557 271.934 371.723 272.116 370.984 272.48C370.246 272.845 369.617 273.36 369.098 274.025C368.578 274.691 368.177 275.488 367.895 276.418C367.621 277.348 367.484 278.373 367.484 279.494ZM371.299 279.781V279.494C371.299 278.874 371.363 278.296 371.49 277.758C371.618 277.211 371.814 276.732 372.078 276.322C372.333 275.921 372.657 275.607 373.049 275.379C373.441 275.142 373.906 275.023 374.443 275.023C374.735 275.023 375.004 275.051 375.25 275.105C375.505 275.16 375.738 275.238 375.947 275.338C376.193 275.456 376.412 275.611 376.604 275.803C376.795 275.994 376.959 276.217 377.096 276.473V282.734C376.968 282.962 376.818 283.167 376.645 283.35C376.471 283.532 376.271 283.687 376.043 283.814C375.824 283.933 375.578 284.024 375.305 284.088C375.04 284.152 374.744 284.184 374.416 284.184C373.878 284.184 373.413 284.07 373.021 283.842C372.63 283.614 372.306 283.299 372.051 282.898C371.796 282.507 371.604 282.046 371.477 281.518C371.358 280.98 371.299 280.401 371.299 279.781ZM391.861 287.273C393.292 287.273 394.532 286.995 395.58 286.439C396.628 285.883 397.394 285.264 397.877 284.58L395.977 282.529C395.539 283.094 394.969 283.518 394.268 283.801C393.566 284.083 392.841 284.225 392.094 284.225C391.565 284.225 391.077 284.143 390.631 283.979C390.184 283.814 389.788 283.582 389.441 283.281C389.104 282.99 388.835 282.666 388.635 282.311C388.434 281.946 388.27 281.467 388.143 280.875V280.834H398.178V279.221C398.178 278.136 398.027 277.147 397.727 276.254C397.426 275.352 396.988 274.581 396.414 273.943C395.831 273.305 395.12 272.813 394.281 272.467C393.452 272.111 392.504 271.934 391.438 271.934C390.408 271.934 389.455 272.12 388.58 272.494C387.705 272.868 386.949 273.392 386.311 274.066C385.673 274.741 385.176 275.548 384.82 276.486C384.465 277.416 384.287 278.446 384.287 279.576V280.123C384.287 281.117 384.465 282.051 384.82 282.926C385.185 283.792 385.7 284.544 386.365 285.182C387.031 285.829 387.828 286.339 388.758 286.713C389.688 287.087 390.722 287.273 391.861 287.273ZM391.41 275.01C391.893 275.01 392.317 275.087 392.682 275.242C393.055 275.388 393.37 275.589 393.625 275.844C393.88 276.108 394.081 276.418 394.227 276.773C394.372 277.129 394.445 277.507 394.445 277.908V278.209H388.211C388.302 277.726 388.439 277.288 388.621 276.896C388.803 276.505 389.031 276.167 389.305 275.885C389.569 275.602 389.879 275.388 390.234 275.242C390.59 275.087 390.982 275.01 391.41 275.01ZM412.123 271.934C411.13 271.934 410.214 272.175 409.375 272.658C408.536 273.132 407.816 273.788 407.215 274.627L407.188 274.299L407.037 272.207H403.496V287H407.297V278.113C407.47 277.694 407.689 277.329 407.953 277.02C408.217 276.71 408.536 276.454 408.91 276.254C409.22 276.081 409.571 275.953 409.963 275.871C410.364 275.78 410.811 275.734 411.303 275.734C411.777 275.734 412.273 275.766 412.793 275.83C413.322 275.885 413.837 275.971 414.338 276.09L414.898 272.303C414.598 272.212 414.201 272.13 413.709 272.057C413.226 271.975 412.697 271.934 412.123 271.934Z" fill="#666666"/>
<path d="M243.694 107.9C243.694 97.285 235.009 88.6 224.201 88.6C213.393 88.6 204.708 97.285 204.708 107.9C204.708 118.515 213.393 127.2 224.201 127.2C235.009 127.2 243.694 118.515 243.694 107.9ZM212.428 107.9C212.428 101.531 217.639 96.32 224.201 96.32C230.763 96.32 235.974 101.531 235.974 107.9C235.974 114.269 230.763 119.48 224.201 119.48C217.639 119.48 212.428 114.269 212.428 107.9ZM223.236 175.064L225.938 172.362C257.783 140.903 260.292 117.936 260.292 111.76V107.9C260.292 87.635 243.694 71.23 223.236 71.23C202.778 71.23 186.18 87.635 186.18 107.9V111.76C186.18 117.936 188.689 140.903 220.534 172.362L223.236 175.064ZM193.9 107.9C193.9 91.881 207.024 78.95 223.236 78.95C239.448 78.95 252.572 91.881 252.572 107.9V111.76C252.572 115.62 251.028 135.499 223.236 164.063C195.444 135.499 193.9 115.427 193.9 111.76V107.9ZM309.7 196.101L267.047 221.77L223.815 207.488C223.429 207.295 223.043 207.102 222.85 206.909C222.464 207.102 222.271 207.295 221.885 207.488L178.653 221.77L136 196.101L158.967 113.304L182.706 127.586C184.636 128.744 185.215 131.06 184.057 132.797C182.899 134.534 180.583 135.113 178.653 134.148L163.792 125.27L145.071 192.434L176.916 211.734L184.25 148.044C184.443 145.921 186.373 144.377 188.496 144.57C190.619 144.763 192.163 146.693 191.97 148.816L184.636 211.541L219.376 200.154V186.837C219.376 184.714 221.113 182.977 223.236 182.977C225.359 182.977 227.096 184.714 227.096 186.837V200.347L261.836 211.927L254.502 148.816C254.309 146.693 255.853 144.763 257.976 144.57C260.099 144.377 262.029 145.921 262.222 148.044L269.556 211.155L300.629 192.434L281.908 125.27L267.047 134.148C265.117 135.306 262.801 134.727 261.643 132.797C260.485 131.06 261.064 128.551 262.994 127.586L286.733 113.304L309.7 196.101Z" fill="#E47C7C"/>
</svg>
