<svg width="372" height="107" viewBox="0 0 372 107" fill="none" xmlns="http://www.w3.org/2000/svg">
<rect width="372" height="107" rx="5" fill="#58B0B6"/>
<path d="M33.0625 47.3398V32.9375H29.7578V50H41.0547V47.3398H33.0625ZM44.9336 37.3203V39.9805H48.543V47.3516H44.9336V50H55.2695V47.3516H51.8359V37.3203H44.9336ZM48.3086 34.0742C48.3086 34.3242 48.3516 34.5586 48.4375 34.7773C48.5312 34.9883 48.6602 35.168 48.8242 35.3164C48.9883 35.4727 49.1836 35.5938 49.4102 35.6797C49.6445 35.7656 49.9023 35.8086 50.1836 35.8086C50.7617 35.8086 51.2188 35.6484 51.5547 35.3281C51.8984 35 52.0703 34.582 52.0703 34.0742C52.0703 33.5664 51.8984 33.1523 51.5547 32.832C51.2188 32.5039 50.7617 32.3398 50.1836 32.3398C49.9023 32.3398 49.6445 32.3828 49.4102 32.4688C49.1836 32.5547 48.9883 32.6719 48.8242 32.8203C48.6602 32.9766 48.5312 33.1641 48.4375 33.3828C48.3516 33.5938 48.3086 33.8242 48.3086 34.0742ZM58.4805 50H61.75V40.9883C61.8594 40.8164 61.9805 40.6602 62.1133 40.5195C62.2461 40.3789 62.3945 40.2578 62.5586 40.1562C62.7617 40.0156 62.9922 39.9102 63.25 39.8398C63.5156 39.7695 63.8047 39.7344 64.1172 39.7344C64.4922 39.7344 64.8281 39.7734 65.125 39.8516C65.4219 39.9219 65.6758 40.0508 65.8867 40.2383C66.0977 40.4258 66.2578 40.6836 66.3672 41.0117C66.4844 41.332 66.543 41.7422 66.543 42.2422V50H69.8008V42.1953C69.8008 41.2734 69.6914 40.4922 69.4727 39.8516C69.2617 39.2031 68.9648 38.6719 68.582 38.2578C68.1914 37.8516 67.7305 37.5547 67.1992 37.3672C66.668 37.1797 66.082 37.0859 65.4414 37.0859C64.9414 37.0859 64.4688 37.1562 64.0234 37.2969C63.5781 37.4375 63.168 37.6406 62.793 37.9062C62.5742 38.0625 62.3672 38.2383 62.1719 38.4336C61.9766 38.6289 61.7969 38.8438 61.6328 39.0781L61.4336 37.3203H58.4805V50ZM79.0469 50.2344C80.2734 50.2344 81.3359 49.9961 82.2344 49.5195C83.1328 49.043 83.7891 48.5117 84.2031 47.9258L82.5742 46.168C82.1992 46.6523 81.7109 47.0156 81.1094 47.2578C80.5078 47.5 79.8867 47.6211 79.2461 47.6211C78.793 47.6211 78.375 47.5508 77.9922 47.4102C77.6094 47.2695 77.2695 47.0703 76.9727 46.8125C76.6836 46.5625 76.4531 46.2852 76.2812 45.9805C76.1094 45.668 75.9688 45.2578 75.8594 44.75V44.7148H84.4609V43.332C84.4609 42.4023 84.332 41.5547 84.0742 40.7891C83.8164 40.0156 83.4414 39.3555 82.9492 38.8086C82.4492 38.2617 81.8398 37.8398 81.1211 37.543C80.4102 37.2383 79.5977 37.0859 78.6836 37.0859C77.8008 37.0859 76.9844 37.2461 76.2344 37.5664C75.4844 37.8867 74.8359 38.3359 74.2891 38.9141C73.7422 39.4922 73.3164 40.1836 73.0117 40.9883C72.707 41.7852 72.5547 42.668 72.5547 43.6367V44.1055C72.5547 44.957 72.707 45.7578 73.0117 46.5078C73.3242 47.25 73.7656 47.8945 74.3359 48.4414C74.9062 48.9961 75.5898 49.4336 76.3867 49.7539C77.1836 50.0742 78.0703 50.2344 79.0469 50.2344ZM78.6602 39.7227C79.0742 39.7227 79.4375 39.7891 79.75 39.9219C80.0703 40.0469 80.3398 40.2188 80.5586 40.4375C80.7773 40.6641 80.9492 40.9297 81.0742 41.2344C81.1992 41.5391 81.2617 41.8633 81.2617 42.207V42.4648H75.918C75.9961 42.0508 76.1133 41.6758 76.2695 41.3398C76.4258 41.0039 76.6211 40.7148 76.8555 40.4727C77.082 40.2305 77.3477 40.0469 77.6523 39.9219C77.957 39.7891 78.293 39.7227 78.6602 39.7227ZM96.4141 37.0859C95.5625 37.0859 94.7773 37.293 94.0586 37.707C93.3398 38.1133 92.7227 38.6758 92.207 39.3945L92.1836 39.1133L92.0547 37.3203H89.0195V50H92.2773V42.3828C92.4258 42.0234 92.6133 41.7109 92.8398 41.4453C93.0664 41.1797 93.3398 40.9609 93.6602 40.7891C93.9258 40.6406 94.2266 40.5312 94.5625 40.4609C94.9062 40.3828 95.2891 40.3438 95.7109 40.3438C96.1172 40.3438 96.543 40.3711 96.9883 40.4258C97.4414 40.4727 97.8828 40.5469 98.3125 40.6484L98.793 37.4023C98.5352 37.3242 98.1953 37.2539 97.7734 37.1914C97.3594 37.1211 96.9062 37.0859 96.4141 37.0859ZM29.5117 82H35.7344C36.6719 82 37.5156 81.8945 38.2656 81.6836C39.0156 81.4727 39.6523 81.1562 40.1758 80.7344C40.6992 80.3125 41.1016 79.7891 41.3828 79.1641C41.6641 78.5391 41.8047 77.8164 41.8047 76.9961C41.8047 76.5664 41.7461 76.1523 41.6289 75.7539C41.5195 75.3477 41.3477 74.9727 41.1133 74.6289C40.8867 74.3086 40.6055 74.0273 40.2695 73.7852C39.9414 73.543 39.4961 73.3438 38.9336 73.1875V73.1758C39.2227 73.0664 39.4844 72.9336 39.7188 72.7773C39.9609 72.6211 40.1758 72.4492 40.3633 72.2617C40.707 71.918 40.9648 71.5195 41.1367 71.0664C41.3164 70.6055 41.4102 70.1172 41.418 69.6016C41.418 68.8047 41.2695 68.1133 40.9727 67.5273C40.6836 66.9414 40.2695 66.457 39.7305 66.0742C39.1914 65.6914 38.5391 65.4062 37.7734 65.2188C37.0156 65.0312 36.1719 64.9375 35.2422 64.9375H29.5117V82ZM32.8164 74.4766H35.8867C36.3477 74.4844 36.7461 74.5469 37.082 74.6641C37.418 74.7812 37.6914 74.9492 37.9023 75.168C38.1133 75.3789 38.2656 75.6367 38.3594 75.9414C38.4609 76.2461 38.5117 76.5898 38.5117 76.9727C38.5117 77.3398 38.4453 77.6719 38.3125 77.9688C38.1875 78.2656 38 78.5195 37.75 78.7305C37.5234 78.918 37.2383 79.0664 36.8945 79.1758C36.5586 79.2852 36.1758 79.3398 35.7461 79.3398H32.8164V74.4766ZM32.8164 72.0977V67.6211H35.2539C35.7852 67.6289 36.2461 67.6875 36.6367 67.7969C37.0352 67.9062 37.3516 68.082 37.5859 68.3242C37.7656 68.4961 37.8984 68.7109 37.9844 68.9688C38.0781 69.2266 38.125 69.5273 38.125 69.8711C38.125 70.1992 38.0703 70.4922 37.9609 70.75C37.8594 71.0078 37.7109 71.2266 37.5156 71.4062C37.2812 71.6328 36.9727 71.8047 36.5898 71.9219C36.207 72.0312 35.7656 72.0898 35.2656 72.0977H32.8164ZM53.1719 69.0859C52.3203 69.0859 51.5352 69.293 50.8164 69.707C50.0977 70.1133 49.4805 70.6758 48.9648 71.3945L48.9414 71.1133L48.8125 69.3203H45.7773V82H49.0352V74.3828C49.1836 74.0234 49.3711 73.7109 49.5977 73.4453C49.8242 73.1797 50.0977 72.9609 50.418 72.7891C50.6836 72.6406 50.9844 72.5312 51.3203 72.4609C51.6641 72.3828 52.0469 72.3438 52.4688 72.3438C52.875 72.3438 53.3008 72.3711 53.7461 72.4258C54.1992 72.4727 54.6406 72.5469 55.0703 72.6484L55.5508 69.4023C55.293 69.3242 54.9531 69.2539 54.5312 69.1914C54.1172 69.1211 53.6641 69.0859 53.1719 69.0859ZM58.0352 75.543V75.7891C58.0352 76.7188 58.168 77.5781 58.4336 78.3672C58.6992 79.1484 59.0898 79.8281 59.6055 80.4062C60.1133 80.9844 60.7383 81.4375 61.4805 81.7656C62.2305 82.0859 63.082 82.2461 64.0352 82.2461C64.9805 82.2461 65.8242 82.0859 66.5664 81.7656C67.3086 81.4375 67.9336 80.9844 68.4414 80.4062C68.9492 79.8281 69.3359 79.1484 69.6016 78.3672C69.8672 77.5781 70 76.7188 70 75.7891V75.543C70 74.6211 69.8672 73.7695 69.6016 72.9883C69.3359 72.1992 68.9492 71.5156 68.4414 70.9375C67.9258 70.3594 67.2969 69.9062 66.5547 69.5781C65.8125 69.25 64.9648 69.0859 64.0117 69.0859C63.0586 69.0859 62.2109 69.25 61.4688 69.5781C60.7344 69.9062 60.1133 70.3594 59.6055 70.9375C59.0898 71.5156 58.6992 72.1992 58.4336 72.9883C58.168 73.7695 58.0352 74.6211 58.0352 75.543ZM61.293 75.7891V75.543C61.293 75.0273 61.3438 74.5391 61.4453 74.0781C61.5469 73.6172 61.707 73.2109 61.9258 72.8594C62.1445 72.5078 62.4258 72.2305 62.7695 72.0273C63.1133 71.8242 63.5273 71.7227 64.0117 71.7227C64.5039 71.7227 64.9219 71.8242 65.2656 72.0273C65.6094 72.2305 65.8906 72.5078 66.1094 72.8594C66.3203 73.2109 66.4766 73.6172 66.5781 74.0781C66.6797 74.5391 66.7305 75.0273 66.7305 75.543V75.7891C66.7305 76.3203 66.6797 76.8203 66.5781 77.2891C66.4766 77.75 66.3203 78.1523 66.1094 78.4961C65.8906 78.8477 65.6094 79.125 65.2656 79.3281C64.9219 79.5312 64.5117 79.6328 64.0352 79.6328C63.543 79.6328 63.1211 79.5312 62.7695 79.3281C62.4258 79.125 62.1445 78.8477 61.9258 78.4961C61.707 78.1523 61.5469 77.75 61.4453 77.2891C61.3438 76.8203 61.293 76.3203 61.293 75.7891ZM73.832 82H76.6914L78.0391 75.2266L78.2969 73.9375L78.5664 75.2266L79.9609 82H82.8203L85.0938 69.3203H82.1055L81.168 76.7969L81.0039 78.0273L80.7812 76.8203L79.4102 69.3203H77.2305L75.8594 76.8555L75.6367 78.0625L75.4844 76.8555L74.5352 69.3203H71.5586L73.832 82ZM95.4883 78.5195C95.4883 78.7148 95.4375 78.8945 95.3359 79.0586C95.2422 79.2227 95.0977 79.3672 94.9023 79.4922C94.6992 79.6172 94.4375 79.7188 94.1172 79.7969C93.8047 79.8672 93.4375 79.9023 93.0156 79.9023C92.6641 79.9023 92.3203 79.8672 91.9844 79.7969C91.6562 79.7266 91.3633 79.6133 91.1055 79.457C90.8477 79.3086 90.6367 79.1133 90.4727 78.8711C90.3086 78.6211 90.2148 78.3242 90.1914 77.9805H87.0859C87.0859 78.4961 87.2109 79.0117 87.4609 79.5273C87.7188 80.0352 88.0938 80.4883 88.5859 80.8867C89.0781 81.293 89.6875 81.6211 90.4141 81.8711C91.1484 82.1211 91.9922 82.2461 92.9453 82.2461C93.8125 82.2461 94.5977 82.1523 95.3008 81.9648C96.0039 81.7695 96.6055 81.5 97.1055 81.1562C97.5977 80.8125 97.9766 80.4062 98.2422 79.9375C98.5156 79.4609 98.6523 78.9414 98.6523 78.3789C98.6523 77.7695 98.5156 77.2461 98.2422 76.8086C97.9766 76.3633 97.6055 75.9844 97.1289 75.6719C96.6523 75.3672 96.0859 75.1172 95.4297 74.9219C94.7734 74.7266 94.0625 74.5664 93.2969 74.4414C92.7656 74.3633 92.3281 74.2734 91.9844 74.1719C91.6406 74.0625 91.3711 73.9414 91.1758 73.8086C90.9727 73.6836 90.832 73.543 90.7539 73.3867C90.6758 73.2227 90.6367 73.0469 90.6367 72.8594C90.6367 72.6719 90.6797 72.4961 90.7656 72.332C90.8594 72.1602 90.9922 72.0117 91.1641 71.8867C91.3516 71.7461 91.5938 71.6367 91.8906 71.5586C92.1875 71.4805 92.5352 71.4414 92.9336 71.4414C93.4023 71.4414 93.8008 71.5 94.1289 71.6172C94.4648 71.7344 94.7305 71.8906 94.9258 72.0859C95.0664 72.2344 95.1719 72.4023 95.2422 72.5898C95.3125 72.7695 95.3477 72.9648 95.3477 73.1758H98.6055C98.6055 72.5898 98.4766 72.0469 98.2188 71.5469C97.9609 71.0469 97.5898 70.6133 97.1055 70.2461C96.6133 69.8867 96.0156 69.6055 95.3125 69.4023C94.6094 69.1914 93.8164 69.0859 92.9336 69.0859C92.0898 69.0859 91.332 69.1914 90.6602 69.4023C89.9883 69.6133 89.418 69.8984 88.9492 70.2578C88.4805 70.6172 88.1211 71.0352 87.8711 71.5117C87.6211 71.9883 87.4961 72.4883 87.4961 73.0117C87.4961 73.5508 87.6172 74.0273 87.8594 74.4414C88.1094 74.8555 88.4531 75.2188 88.8906 75.5312C89.3281 75.8516 89.8516 76.125 90.4609 76.3516C91.0781 76.5703 91.7578 76.7539 92.5 76.9023C93.0859 77.0117 93.5703 77.1211 93.9531 77.2305C94.3359 77.3398 94.6445 77.457 94.8789 77.582C95.1055 77.7148 95.2617 77.8555 95.3477 78.0039C95.4414 78.1523 95.4883 78.3242 95.4883 78.5195ZM107.875 82.2344C109.102 82.2344 110.164 81.9961 111.062 81.5195C111.961 81.043 112.617 80.5117 113.031 79.9258L111.402 78.168C111.027 78.6523 110.539 79.0156 109.938 79.2578C109.336 79.5 108.715 79.6211 108.074 79.6211C107.621 79.6211 107.203 79.5508 106.82 79.4102C106.438 79.2695 106.098 79.0703 105.801 78.8125C105.512 78.5625 105.281 78.2852 105.109 77.9805C104.938 77.668 104.797 77.2578 104.688 76.75V76.7148H113.289V75.332C113.289 74.4023 113.16 73.5547 112.902 72.7891C112.645 72.0156 112.27 71.3555 111.777 70.8086C111.277 70.2617 110.668 69.8398 109.949 69.543C109.238 69.2383 108.426 69.0859 107.512 69.0859C106.629 69.0859 105.812 69.2461 105.062 69.5664C104.312 69.8867 103.664 70.3359 103.117 70.9141C102.57 71.4922 102.145 72.1836 101.84 72.9883C101.535 73.7852 101.383 74.668 101.383 75.6367V76.1055C101.383 76.957 101.535 77.7578 101.84 78.5078C102.152 79.25 102.594 79.8945 103.164 80.4414C103.734 80.9961 104.418 81.4336 105.215 81.7539C106.012 82.0742 106.898 82.2344 107.875 82.2344ZM107.488 71.7227C107.902 71.7227 108.266 71.7891 108.578 71.9219C108.898 72.0469 109.168 72.2188 109.387 72.4375C109.605 72.6641 109.777 72.9297 109.902 73.2344C110.027 73.5391 110.09 73.8633 110.09 74.207V74.4648H104.746C104.824 74.0508 104.941 73.6758 105.098 73.3398C105.254 73.0039 105.449 72.7148 105.684 72.4727C105.91 72.2305 106.176 72.0469 106.48 71.9219C106.785 71.7891 107.121 71.7227 107.488 71.7227ZM125.242 69.0859C124.391 69.0859 123.605 69.293 122.887 69.707C122.168 70.1133 121.551 70.6758 121.035 71.3945L121.012 71.1133L120.883 69.3203H117.848V82H121.105V74.3828C121.254 74.0234 121.441 73.7109 121.668 73.4453C121.895 73.1797 122.168 72.9609 122.488 72.7891C122.754 72.6406 123.055 72.5312 123.391 72.4609C123.734 72.3828 124.117 72.3438 124.539 72.3438C124.945 72.3438 125.371 72.3711 125.816 72.4258C126.27 72.4727 126.711 72.5469 127.141 72.6484L127.621 69.4023C127.363 69.3242 127.023 69.2539 126.602 69.1914C126.188 69.1211 125.734 69.0859 125.242 69.0859ZM155.348 74.5234V71.9219H148.34V67.6211H156.496V64.9375H145.035V82H156.531V79.3398H148.34V74.5234H155.348ZM165.18 73.2812L162.438 69.3203H158.934L163.176 75.543L158.77 82H162.297L165.191 77.8516L168.109 82H171.625L167.219 75.543L171.473 69.3203H167.969L165.18 73.2812ZM179.77 66.2148H176.512V69.3203H173.617V71.7227H176.512V77.4883C176.512 78.3242 176.621 79.043 176.84 79.6445C177.059 80.2383 177.371 80.7266 177.777 81.1094C178.176 81.5 178.656 81.7891 179.219 81.9766C179.789 82.1562 180.422 82.2461 181.117 82.2461C181.477 82.2461 181.84 82.2266 182.207 82.1875C182.582 82.1562 182.941 82.1094 183.285 82.0469C183.629 81.9844 183.953 81.9062 184.258 81.8125C184.562 81.7109 184.828 81.5938 185.055 81.4609L184.738 79.2227C184.59 79.2617 184.41 79.3008 184.199 79.3398C183.996 79.3789 183.777 79.4141 183.543 79.4453C183.301 79.4844 183.047 79.5156 182.781 79.5391C182.523 79.5625 182.27 79.5742 182.02 79.5742C181.676 79.5742 181.363 79.5352 181.082 79.457C180.809 79.3789 180.574 79.2461 180.379 79.0586C180.184 78.8789 180.031 78.6367 179.922 78.332C179.82 78.0195 179.77 77.6328 179.77 77.1719V71.7227H184.504V69.3203H179.77V66.2148ZM194.359 82.2344C195.586 82.2344 196.648 81.9961 197.547 81.5195C198.445 81.043 199.102 80.5117 199.516 79.9258L197.887 78.168C197.512 78.6523 197.023 79.0156 196.422 79.2578C195.82 79.5 195.199 79.6211 194.559 79.6211C194.105 79.6211 193.688 79.5508 193.305 79.4102C192.922 79.2695 192.582 79.0703 192.285 78.8125C191.996 78.5625 191.766 78.2852 191.594 77.9805C191.422 77.668 191.281 77.2578 191.172 76.75V76.7148H199.773V75.332C199.773 74.4023 199.645 73.5547 199.387 72.7891C199.129 72.0156 198.754 71.3555 198.262 70.8086C197.762 70.2617 197.152 69.8398 196.434 69.543C195.723 69.2383 194.91 69.0859 193.996 69.0859C193.113 69.0859 192.297 69.2461 191.547 69.5664C190.797 69.8867 190.148 70.3359 189.602 70.9141C189.055 71.4922 188.629 72.1836 188.324 72.9883C188.02 73.7852 187.867 74.668 187.867 75.6367V76.1055C187.867 76.957 188.02 77.7578 188.324 78.5078C188.637 79.25 189.078 79.8945 189.648 80.4414C190.219 80.9961 190.902 81.4336 191.699 81.7539C192.496 82.0742 193.383 82.2344 194.359 82.2344ZM193.973 71.7227C194.387 71.7227 194.75 71.7891 195.062 71.9219C195.383 72.0469 195.652 72.2188 195.871 72.4375C196.09 72.6641 196.262 72.9297 196.387 73.2344C196.512 73.5391 196.574 73.8633 196.574 74.207V74.4648H191.23C191.309 74.0508 191.426 73.6758 191.582 73.3398C191.738 73.0039 191.934 72.7148 192.168 72.4727C192.395 72.2305 192.66 72.0469 192.965 71.9219C193.27 71.7891 193.605 71.7227 193.973 71.7227ZM202.621 82H205.891V72.9883C206 72.8164 206.121 72.6602 206.254 72.5195C206.387 72.3789 206.535 72.2578 206.699 72.1562C206.902 72.0156 207.133 71.9102 207.391 71.8398C207.656 71.7695 207.945 71.7344 208.258 71.7344C208.633 71.7344 208.969 71.7734 209.266 71.8516C209.562 71.9219 209.816 72.0508 210.027 72.2383C210.238 72.4258 210.398 72.6836 210.508 73.0117C210.625 73.332 210.684 73.7422 210.684 74.2422V82H213.941V74.1953C213.941 73.2734 213.832 72.4922 213.613 71.8516C213.402 71.2031 213.105 70.6719 212.723 70.2578C212.332 69.8516 211.871 69.5547 211.34 69.3672C210.809 69.1797 210.223 69.0859 209.582 69.0859C209.082 69.0859 208.609 69.1562 208.164 69.2969C207.719 69.4375 207.309 69.6406 206.934 69.9062C206.715 70.0625 206.508 70.2383 206.312 70.4336C206.117 70.6289 205.938 70.8438 205.773 71.0781L205.574 69.3203H202.621V82ZM225.215 78.5195C225.215 78.7148 225.164 78.8945 225.062 79.0586C224.969 79.2227 224.824 79.3672 224.629 79.4922C224.426 79.6172 224.164 79.7188 223.844 79.7969C223.531 79.8672 223.164 79.9023 222.742 79.9023C222.391 79.9023 222.047 79.8672 221.711 79.7969C221.383 79.7266 221.09 79.6133 220.832 79.457C220.574 79.3086 220.363 79.1133 220.199 78.8711C220.035 78.6211 219.941 78.3242 219.918 77.9805H216.812C216.812 78.4961 216.938 79.0117 217.188 79.5273C217.445 80.0352 217.82 80.4883 218.312 80.8867C218.805 81.293 219.414 81.6211 220.141 81.8711C220.875 82.1211 221.719 82.2461 222.672 82.2461C223.539 82.2461 224.324 82.1523 225.027 81.9648C225.73 81.7695 226.332 81.5 226.832 81.1562C227.324 80.8125 227.703 80.4062 227.969 79.9375C228.242 79.4609 228.379 78.9414 228.379 78.3789C228.379 77.7695 228.242 77.2461 227.969 76.8086C227.703 76.3633 227.332 75.9844 226.855 75.6719C226.379 75.3672 225.812 75.1172 225.156 74.9219C224.5 74.7266 223.789 74.5664 223.023 74.4414C222.492 74.3633 222.055 74.2734 221.711 74.1719C221.367 74.0625 221.098 73.9414 220.902 73.8086C220.699 73.6836 220.559 73.543 220.48 73.3867C220.402 73.2227 220.363 73.0469 220.363 72.8594C220.363 72.6719 220.406 72.4961 220.492 72.332C220.586 72.1602 220.719 72.0117 220.891 71.8867C221.078 71.7461 221.32 71.6367 221.617 71.5586C221.914 71.4805 222.262 71.4414 222.66 71.4414C223.129 71.4414 223.527 71.5 223.855 71.6172C224.191 71.7344 224.457 71.8906 224.652 72.0859C224.793 72.2344 224.898 72.4023 224.969 72.5898C225.039 72.7695 225.074 72.9648 225.074 73.1758H228.332C228.332 72.5898 228.203 72.0469 227.945 71.5469C227.688 71.0469 227.316 70.6133 226.832 70.2461C226.34 69.8867 225.742 69.6055 225.039 69.4023C224.336 69.1914 223.543 69.0859 222.66 69.0859C221.816 69.0859 221.059 69.1914 220.387 69.4023C219.715 69.6133 219.145 69.8984 218.676 70.2578C218.207 70.6172 217.848 71.0352 217.598 71.5117C217.348 71.9883 217.223 72.4883 217.223 73.0117C217.223 73.5508 217.344 74.0273 217.586 74.4414C217.836 74.8555 218.18 75.2188 218.617 75.5312C219.055 75.8516 219.578 76.125 220.188 76.3516C220.805 76.5703 221.484 76.7539 222.227 76.9023C222.812 77.0117 223.297 77.1211 223.68 77.2305C224.062 77.3398 224.371 77.457 224.605 77.582C224.832 77.7148 224.988 77.8555 225.074 78.0039C225.168 78.1523 225.215 78.3242 225.215 78.5195ZM232.316 69.3203V71.9805H235.926V79.3516H232.316V82H242.652V79.3516H239.219V69.3203H232.316ZM235.691 66.0742C235.691 66.3242 235.734 66.5586 235.82 66.7773C235.914 66.9883 236.043 67.168 236.207 67.3164C236.371 67.4727 236.566 67.5938 236.793 67.6797C237.027 67.7656 237.285 67.8086 237.566 67.8086C238.145 67.8086 238.602 67.6484 238.938 67.3281C239.281 67 239.453 66.582 239.453 66.0742C239.453 65.5664 239.281 65.1523 238.938 64.832C238.602 64.5039 238.145 64.3398 237.566 64.3398C237.285 64.3398 237.027 64.3828 236.793 64.4688C236.566 64.5547 236.371 64.6719 236.207 64.8203C236.043 64.9766 235.914 65.1641 235.82 65.3828C235.734 65.5938 235.691 65.8242 235.691 66.0742ZM245.418 75.543V75.7891C245.418 76.7188 245.551 77.5781 245.816 78.3672C246.082 79.1484 246.473 79.8281 246.988 80.4062C247.496 80.9844 248.121 81.4375 248.863 81.7656C249.613 82.0859 250.465 82.2461 251.418 82.2461C252.363 82.2461 253.207 82.0859 253.949 81.7656C254.691 81.4375 255.316 80.9844 255.824 80.4062C256.332 79.8281 256.719 79.1484 256.984 78.3672C257.25 77.5781 257.383 76.7188 257.383 75.7891V75.543C257.383 74.6211 257.25 73.7695 256.984 72.9883C256.719 72.1992 256.332 71.5156 255.824 70.9375C255.309 70.3594 254.68 69.9062 253.938 69.5781C253.195 69.25 252.348 69.0859 251.395 69.0859C250.441 69.0859 249.594 69.25 248.852 69.5781C248.117 69.9062 247.496 70.3594 246.988 70.9375C246.473 71.5156 246.082 72.1992 245.816 72.9883C245.551 73.7695 245.418 74.6211 245.418 75.543ZM248.676 75.7891V75.543C248.676 75.0273 248.727 74.5391 248.828 74.0781C248.93 73.6172 249.09 73.2109 249.309 72.8594C249.527 72.5078 249.809 72.2305 250.152 72.0273C250.496 71.8242 250.91 71.7227 251.395 71.7227C251.887 71.7227 252.305 71.8242 252.648 72.0273C252.992 72.2305 253.273 72.5078 253.492 72.8594C253.703 73.2109 253.859 73.6172 253.961 74.0781C254.062 74.5391 254.113 75.0273 254.113 75.543V75.7891C254.113 76.3203 254.062 76.8203 253.961 77.2891C253.859 77.75 253.703 78.1523 253.492 78.4961C253.273 78.8477 252.992 79.125 252.648 79.3281C252.305 79.5312 251.895 79.6328 251.418 79.6328C250.926 79.6328 250.504 79.5312 250.152 79.3281C249.809 79.125 249.527 78.8477 249.309 78.4961C249.09 78.1523 248.93 77.75 248.828 77.2891C248.727 76.8203 248.676 76.3203 248.676 75.7891ZM260.277 82H263.547V72.9883C263.656 72.8164 263.777 72.6602 263.91 72.5195C264.043 72.3789 264.191 72.2578 264.355 72.1562C264.559 72.0156 264.789 71.9102 265.047 71.8398C265.312 71.7695 265.602 71.7344 265.914 71.7344C266.289 71.7344 266.625 71.7734 266.922 71.8516C267.219 71.9219 267.473 72.0508 267.684 72.2383C267.895 72.4258 268.055 72.6836 268.164 73.0117C268.281 73.332 268.34 73.7422 268.34 74.2422V82H271.598V74.1953C271.598 73.2734 271.488 72.4922 271.27 71.8516C271.059 71.2031 270.762 70.6719 270.379 70.2578C269.988 69.8516 269.527 69.5547 268.996 69.3672C268.465 69.1797 267.879 69.0859 267.238 69.0859C266.738 69.0859 266.266 69.1562 265.82 69.2969C265.375 69.4375 264.965 69.6406 264.59 69.9062C264.371 70.0625 264.164 70.2383 263.969 70.4336C263.773 70.6289 263.594 70.8438 263.43 71.0781L263.23 69.3203H260.277V82Z" fill="white"/>
<path d="M303.749 72.9754L299.966 76.7581L299.965 76.7584C299.548 77.1763 299.548 77.8535 299.965 78.2714C300.175 78.4805 300.448 78.5849 300.722 78.5849C300.919 78.5849 301.115 78.5286 301.288 78.4208C301.355 78.3786 301.42 78.3299 301.479 78.2711L305.262 74.4884C305.679 74.0705 305.679 73.3933 305.262 72.9754C304.844 72.5571 304.166 72.5574 303.749 72.9754Z" fill="white"/>
<path d="M353.686 38.1698C354.104 37.7519 354.104 37.0747 353.686 36.6568L343.094 26.0637C342.692 25.6624 341.982 25.6624 341.581 26.0637L336.284 31.3607L309.045 58.5989C309.045 58.5992 309.045 58.5999 309.044 58.6005L304.064 63.5812L304.061 63.5787L303.172 64.4681C303.109 64.5211 303.05 64.5722 302.981 64.6412L291.631 75.9906C291.227 76.395 291 76.9432 291 77.515C291 78.0869 291.227 78.6351 291.631 79.0395L299.198 86.6059C299.619 87.0268 300.17 87.2372 300.722 87.2372C301.274 87.2372 301.826 87.0268 302.247 86.6059L309.057 79.7958L313.596 75.2561L314.342 76.002C314.543 76.2025 314.815 76.3155 315.099 76.3155C315.383 76.3155 315.655 76.2025 315.856 76.002L321.149 70.7081C321.15 70.7072 321.151 70.7069 321.152 70.7059L344.608 47.2498L346.877 49.5195L327.979 68.4193C327.561 68.8372 327.561 69.5144 327.979 69.9323C328.188 70.1415 328.461 70.2459 328.735 70.2459C329.009 70.2459 329.283 70.1415 329.492 69.9323L349.147 50.2765C349.565 49.8586 349.565 49.1814 349.147 48.7635L346.121 45.7374L348.391 43.4677L353.686 38.1698ZM307.532 78.2714L300.722 85.0814L293.156 77.515L304.505 66.1659L306.798 68.4587L309.045 70.7056L309.784 71.4445L309.927 71.5873L312.072 73.7317L307.532 78.2714ZM315.099 73.732L313.76 72.3939C313.709 72.3292 313.655 72.2661 313.596 72.2073L311.308 69.92L308.322 66.934L306.03 64.6412C306.03 64.6412 306.03 64.6412 306.029 64.6412L309.802 60.8686L318.881 69.9487L315.099 73.732ZM343.851 44.9795L320.395 68.4353L311.315 59.3547L337.041 33.6304L346.12 42.7101L343.851 44.9795ZM338.554 32.1171L342.337 28.3334L351.417 37.4131L347.633 41.1968L338.554 32.1171Z" fill="white"/>
</svg>
