<svg width="446" height="326" viewBox="0 0 446 326" fill="none" xmlns="http://www.w3.org/2000/svg">
<rect width="446" height="326" rx="5" fill="#58B0B6"/>
<rect x="81" y="104" width="242" height="28" fill="#FFFDC4"/>
<rect x="81" y="149" width="242" height="28" fill="#FFFDC4"/>
<rect x="81" y="194" width="242" height="28" fill="#FFFDC4"/>
<circle cx="348" cy="117" r="14" fill="#ACFFF0"/>
<circle cx="348" cy="163" r="14" fill="#ACFFF0"/>
<circle cx="348" cy="208" r="14" fill="#ACFFF0"/>
<path d="M161.555 279.68V250.875H154.945V285H177.539V279.68H161.555ZM184.781 250.875V256.195H191.273V279.703H184.781V285H204.516V279.703H197.859V256.195H204.516V250.875H184.781ZM234.656 285V250.875H228.047L228.023 272.789L218.602 250.875H211.969V285H218.602V262.992L228.094 285H234.656ZM261.984 270.047V264.844H247.969V256.242H264.281V250.875H241.359V285H264.352V279.68H247.969V270.047H261.984ZM281.391 272.25L287.812 285H294.867V284.695L287.531 270.609C288.469 270.188 289.312 269.688 290.062 269.109C290.828 268.531 291.484 267.852 292.031 267.07C292.562 266.305 292.969 265.438 293.25 264.469C293.547 263.484 293.695 262.383 293.695 261.164C293.695 259.477 293.398 257.992 292.805 256.711C292.227 255.43 291.398 254.359 290.32 253.5C289.227 252.641 287.914 251.992 286.383 251.555C284.852 251.102 283.141 250.875 281.25 250.875H269.812V285H276.398V272.25H281.391ZM276.398 266.906V256.219H281.25C282.156 256.219 282.961 256.328 283.664 256.547C284.367 256.766 284.961 257.078 285.445 257.484C285.992 257.938 286.398 258.516 286.664 259.219C286.945 259.906 287.086 260.703 287.086 261.609C287.086 262.359 286.977 263.039 286.758 263.648C286.555 264.258 286.25 264.781 285.844 265.219C285.359 265.766 284.727 266.188 283.945 266.484C283.18 266.766 282.289 266.906 281.273 266.906H276.398Z" fill="white"/>
<path d="M172.562 48H178.785C179.723 48 180.566 47.8945 181.316 47.6836C182.066 47.4727 182.703 47.1562 183.227 46.7344C183.75 46.3125 184.152 45.7891 184.434 45.1641C184.715 44.5391 184.855 43.8164 184.855 42.9961C184.855 42.5664 184.797 42.1523 184.68 41.7539C184.57 41.3477 184.398 40.9727 184.164 40.6289C183.938 40.3086 183.656 40.0273 183.32 39.7852C182.992 39.543 182.547 39.3438 181.984 39.1875V39.1758C182.273 39.0664 182.535 38.9336 182.77 38.7773C183.012 38.6211 183.227 38.4492 183.414 38.2617C183.758 37.918 184.016 37.5195 184.188 37.0664C184.367 36.6055 184.461 36.1172 184.469 35.6016C184.469 34.8047 184.32 34.1133 184.023 33.5273C183.734 32.9414 183.32 32.457 182.781 32.0742C182.242 31.6914 181.59 31.4062 180.824 31.2188C180.066 31.0312 179.223 30.9375 178.293 30.9375H172.562V48ZM175.867 40.4766H178.938C179.398 40.4844 179.797 40.5469 180.133 40.6641C180.469 40.7812 180.742 40.9492 180.953 41.168C181.164 41.3789 181.316 41.6367 181.41 41.9414C181.512 42.2461 181.562 42.5898 181.562 42.9727C181.562 43.3398 181.496 43.6719 181.363 43.9688C181.238 44.2656 181.051 44.5195 180.801 44.7305C180.574 44.918 180.289 45.0664 179.945 45.1758C179.609 45.2852 179.227 45.3398 178.797 45.3398H175.867V40.4766ZM175.867 38.0977V33.6211H178.305C178.836 33.6289 179.297 33.6875 179.688 33.7969C180.086 33.9062 180.402 34.082 180.637 34.3242C180.816 34.4961 180.949 34.7109 181.035 34.9688C181.129 35.2266 181.176 35.5273 181.176 35.8711C181.176 36.1992 181.121 36.4922 181.012 36.75C180.91 37.0078 180.762 37.2266 180.566 37.4062C180.332 37.6328 180.023 37.8047 179.641 37.9219C179.258 38.0312 178.816 38.0898 178.316 38.0977H175.867ZM196.223 35.0859C195.371 35.0859 194.586 35.293 193.867 35.707C193.148 36.1133 192.531 36.6758 192.016 37.3945L191.992 37.1133L191.863 35.3203H188.828V48H192.086V40.3828C192.234 40.0234 192.422 39.7109 192.648 39.4453C192.875 39.1797 193.148 38.9609 193.469 38.7891C193.734 38.6406 194.035 38.5312 194.371 38.4609C194.715 38.3828 195.098 38.3438 195.52 38.3438C195.926 38.3438 196.352 38.3711 196.797 38.4258C197.25 38.4727 197.691 38.5469 198.121 38.6484L198.602 35.4023C198.344 35.3242 198.004 35.2539 197.582 35.1914C197.168 35.1211 196.715 35.0859 196.223 35.0859ZM201.086 41.543V41.7891C201.086 42.7188 201.219 43.5781 201.484 44.3672C201.75 45.1484 202.141 45.8281 202.656 46.4062C203.164 46.9844 203.789 47.4375 204.531 47.7656C205.281 48.0859 206.133 48.2461 207.086 48.2461C208.031 48.2461 208.875 48.0859 209.617 47.7656C210.359 47.4375 210.984 46.9844 211.492 46.4062C212 45.8281 212.387 45.1484 212.652 44.3672C212.918 43.5781 213.051 42.7188 213.051 41.7891V41.543C213.051 40.6211 212.918 39.7695 212.652 38.9883C212.387 38.1992 212 37.5156 211.492 36.9375C210.977 36.3594 210.348 35.9062 209.605 35.5781C208.863 35.25 208.016 35.0859 207.062 35.0859C206.109 35.0859 205.262 35.25 204.52 35.5781C203.785 35.9062 203.164 36.3594 202.656 36.9375C202.141 37.5156 201.75 38.1992 201.484 38.9883C201.219 39.7695 201.086 40.6211 201.086 41.543ZM204.344 41.7891V41.543C204.344 41.0273 204.395 40.5391 204.496 40.0781C204.598 39.6172 204.758 39.2109 204.977 38.8594C205.195 38.5078 205.477 38.2305 205.82 38.0273C206.164 37.8242 206.578 37.7227 207.062 37.7227C207.555 37.7227 207.973 37.8242 208.316 38.0273C208.66 38.2305 208.941 38.5078 209.16 38.8594C209.371 39.2109 209.527 39.6172 209.629 40.0781C209.73 40.5391 209.781 41.0273 209.781 41.543V41.7891C209.781 42.3203 209.73 42.8203 209.629 43.2891C209.527 43.75 209.371 44.1523 209.16 44.4961C208.941 44.8477 208.66 45.125 208.316 45.3281C207.973 45.5312 207.562 45.6328 207.086 45.6328C206.594 45.6328 206.172 45.5312 205.82 45.3281C205.477 45.125 205.195 44.8477 204.977 44.4961C204.758 44.1523 204.598 43.75 204.496 43.2891C204.395 42.8203 204.344 42.3203 204.344 41.7891ZM216.883 48H219.742L221.09 41.2266L221.348 39.9375L221.617 41.2266L223.012 48H225.871L228.145 35.3203H225.156L224.219 42.7969L224.055 44.0273L223.832 42.8203L222.461 35.3203H220.281L218.91 42.8555L218.688 44.0625L218.535 42.8555L217.586 35.3203H214.609L216.883 48ZM238.539 44.5195C238.539 44.7148 238.488 44.8945 238.387 45.0586C238.293 45.2227 238.148 45.3672 237.953 45.4922C237.75 45.6172 237.488 45.7188 237.168 45.7969C236.855 45.8672 236.488 45.9023 236.066 45.9023C235.715 45.9023 235.371 45.8672 235.035 45.7969C234.707 45.7266 234.414 45.6133 234.156 45.457C233.898 45.3086 233.688 45.1133 233.523 44.8711C233.359 44.6211 233.266 44.3242 233.242 43.9805H230.137C230.137 44.4961 230.262 45.0117 230.512 45.5273C230.77 46.0352 231.145 46.4883 231.637 46.8867C232.129 47.293 232.738 47.6211 233.465 47.8711C234.199 48.1211 235.043 48.2461 235.996 48.2461C236.863 48.2461 237.648 48.1523 238.352 47.9648C239.055 47.7695 239.656 47.5 240.156 47.1562C240.648 46.8125 241.027 46.4062 241.293 45.9375C241.566 45.4609 241.703 44.9414 241.703 44.3789C241.703 43.7695 241.566 43.2461 241.293 42.8086C241.027 42.3633 240.656 41.9844 240.18 41.6719C239.703 41.3672 239.137 41.1172 238.48 40.9219C237.824 40.7266 237.113 40.5664 236.348 40.4414C235.816 40.3633 235.379 40.2734 235.035 40.1719C234.691 40.0625 234.422 39.9414 234.227 39.8086C234.023 39.6836 233.883 39.543 233.805 39.3867C233.727 39.2227 233.688 39.0469 233.688 38.8594C233.688 38.6719 233.73 38.4961 233.816 38.332C233.91 38.1602 234.043 38.0117 234.215 37.8867C234.402 37.7461 234.645 37.6367 234.941 37.5586C235.238 37.4805 235.586 37.4414 235.984 37.4414C236.453 37.4414 236.852 37.5 237.18 37.6172C237.516 37.7344 237.781 37.8906 237.977 38.0859C238.117 38.2344 238.223 38.4023 238.293 38.5898C238.363 38.7695 238.398 38.9648 238.398 39.1758H241.656C241.656 38.5898 241.527 38.0469 241.27 37.5469C241.012 37.0469 240.641 36.6133 240.156 36.2461C239.664 35.8867 239.066 35.6055 238.363 35.4023C237.66 35.1914 236.867 35.0859 235.984 35.0859C235.141 35.0859 234.383 35.1914 233.711 35.4023C233.039 35.6133 232.469 35.8984 232 36.2578C231.531 36.6172 231.172 37.0352 230.922 37.5117C230.672 37.9883 230.547 38.4883 230.547 39.0117C230.547 39.5508 230.668 40.0273 230.91 40.4414C231.16 40.8555 231.504 41.2188 231.941 41.5312C232.379 41.8516 232.902 42.125 233.512 42.3516C234.129 42.5703 234.809 42.7539 235.551 42.9023C236.137 43.0117 236.621 43.1211 237.004 43.2305C237.387 43.3398 237.695 43.457 237.93 43.582C238.156 43.7148 238.312 43.8555 238.398 44.0039C238.492 44.1523 238.539 44.3242 238.539 44.5195ZM250.926 48.2344C252.152 48.2344 253.215 47.9961 254.113 47.5195C255.012 47.043 255.668 46.5117 256.082 45.9258L254.453 44.168C254.078 44.6523 253.59 45.0156 252.988 45.2578C252.387 45.5 251.766 45.6211 251.125 45.6211C250.672 45.6211 250.254 45.5508 249.871 45.4102C249.488 45.2695 249.148 45.0703 248.852 44.8125C248.562 44.5625 248.332 44.2852 248.16 43.9805C247.988 43.668 247.848 43.2578 247.738 42.75V42.7148H256.34V41.332C256.34 40.4023 256.211 39.5547 255.953 38.7891C255.695 38.0156 255.32 37.3555 254.828 36.8086C254.328 36.2617 253.719 35.8398 253 35.543C252.289 35.2383 251.477 35.0859 250.562 35.0859C249.68 35.0859 248.863 35.2461 248.113 35.5664C247.363 35.8867 246.715 36.3359 246.168 36.9141C245.621 37.4922 245.195 38.1836 244.891 38.9883C244.586 39.7852 244.434 40.668 244.434 41.6367V42.1055C244.434 42.957 244.586 43.7578 244.891 44.5078C245.203 45.25 245.645 45.8945 246.215 46.4414C246.785 46.9961 247.469 47.4336 248.266 47.7539C249.062 48.0742 249.949 48.2344 250.926 48.2344ZM250.539 37.7227C250.953 37.7227 251.316 37.7891 251.629 37.9219C251.949 38.0469 252.219 38.2188 252.438 38.4375C252.656 38.6641 252.828 38.9297 252.953 39.2344C253.078 39.5391 253.141 39.8633 253.141 40.207V40.4648H247.797C247.875 40.0508 247.992 39.6758 248.148 39.3398C248.305 39.0039 248.5 38.7148 248.734 38.4727C248.961 38.2305 249.227 38.0469 249.531 37.9219C249.836 37.7891 250.172 37.7227 250.539 37.7227ZM268.293 35.0859C267.441 35.0859 266.656 35.293 265.938 35.707C265.219 36.1133 264.602 36.6758 264.086 37.3945L264.062 37.1133L263.934 35.3203H260.898V48H264.156V40.3828C264.305 40.0234 264.492 39.7109 264.719 39.4453C264.945 39.1797 265.219 38.9609 265.539 38.7891C265.805 38.6406 266.105 38.5312 266.441 38.4609C266.785 38.3828 267.168 38.3438 267.59 38.3438C267.996 38.3438 268.422 38.3711 268.867 38.4258C269.32 38.4727 269.762 38.5469 270.191 38.6484L270.672 35.4023C270.414 35.3242 270.074 35.2539 269.652 35.1914C269.238 35.1211 268.785 35.0859 268.293 35.0859ZM168.672 72.5234V69.9219H161.664V65.6211H169.82V62.9375H158.359V80H169.855V77.3398H161.664V72.5234H168.672ZM178.504 71.2812L175.762 67.3203H172.258L176.5 73.543L172.094 80H175.621L178.516 75.8516L181.434 80H184.949L180.543 73.543L184.797 67.3203H181.293L178.504 71.2812ZM193.094 64.2148H189.836V67.3203H186.941V69.7227H189.836V75.4883C189.836 76.3242 189.945 77.043 190.164 77.6445C190.383 78.2383 190.695 78.7266 191.102 79.1094C191.5 79.5 191.98 79.7891 192.543 79.9766C193.113 80.1562 193.746 80.2461 194.441 80.2461C194.801 80.2461 195.164 80.2266 195.531 80.1875C195.906 80.1562 196.266 80.1094 196.609 80.0469C196.953 79.9844 197.277 79.9062 197.582 79.8125C197.887 79.7109 198.152 79.5938 198.379 79.4609L198.062 77.2227C197.914 77.2617 197.734 77.3008 197.523 77.3398C197.32 77.3789 197.102 77.4141 196.867 77.4453C196.625 77.4844 196.371 77.5156 196.105 77.5391C195.848 77.5625 195.594 77.5742 195.344 77.5742C195 77.5742 194.688 77.5352 194.406 77.457C194.133 77.3789 193.898 77.2461 193.703 77.0586C193.508 76.8789 193.355 76.6367 193.246 76.332C193.145 76.0195 193.094 75.6328 193.094 75.1719V69.7227H197.828V67.3203H193.094V64.2148ZM207.684 80.2344C208.91 80.2344 209.973 79.9961 210.871 79.5195C211.77 79.043 212.426 78.5117 212.84 77.9258L211.211 76.168C210.836 76.6523 210.348 77.0156 209.746 77.2578C209.145 77.5 208.523 77.6211 207.883 77.6211C207.43 77.6211 207.012 77.5508 206.629 77.4102C206.246 77.2695 205.906 77.0703 205.609 76.8125C205.32 76.5625 205.09 76.2852 204.918 75.9805C204.746 75.668 204.605 75.2578 204.496 74.75V74.7148H213.098V73.332C213.098 72.4023 212.969 71.5547 212.711 70.7891C212.453 70.0156 212.078 69.3555 211.586 68.8086C211.086 68.2617 210.477 67.8398 209.758 67.543C209.047 67.2383 208.234 67.0859 207.32 67.0859C206.438 67.0859 205.621 67.2461 204.871 67.5664C204.121 67.8867 203.473 68.3359 202.926 68.9141C202.379 69.4922 201.953 70.1836 201.648 70.9883C201.344 71.7852 201.191 72.668 201.191 73.6367V74.1055C201.191 74.957 201.344 75.7578 201.648 76.5078C201.961 77.25 202.402 77.8945 202.973 78.4414C203.543 78.9961 204.227 79.4336 205.023 79.7539C205.82 80.0742 206.707 80.2344 207.684 80.2344ZM207.297 69.7227C207.711 69.7227 208.074 69.7891 208.387 69.9219C208.707 70.0469 208.977 70.2188 209.195 70.4375C209.414 70.6641 209.586 70.9297 209.711 71.2344C209.836 71.5391 209.898 71.8633 209.898 72.207V72.4648H204.555C204.633 72.0508 204.75 71.6758 204.906 71.3398C205.062 71.0039 205.258 70.7148 205.492 70.4727C205.719 70.2305 205.984 70.0469 206.289 69.9219C206.594 69.7891 206.93 69.7227 207.297 69.7227ZM215.945 80H219.215V70.9883C219.324 70.8164 219.445 70.6602 219.578 70.5195C219.711 70.3789 219.859 70.2578 220.023 70.1562C220.227 70.0156 220.457 69.9102 220.715 69.8398C220.98 69.7695 221.27 69.7344 221.582 69.7344C221.957 69.7344 222.293 69.7734 222.59 69.8516C222.887 69.9219 223.141 70.0508 223.352 70.2383C223.562 70.4258 223.723 70.6836 223.832 71.0117C223.949 71.332 224.008 71.7422 224.008 72.2422V80H227.266V72.1953C227.266 71.2734 227.156 70.4922 226.938 69.8516C226.727 69.2031 226.43 68.6719 226.047 68.2578C225.656 67.8516 225.195 67.5547 224.664 67.3672C224.133 67.1797 223.547 67.0859 222.906 67.0859C222.406 67.0859 221.934 67.1562 221.488 67.2969C221.043 67.4375 220.633 67.6406 220.258 67.9062C220.039 68.0625 219.832 68.2383 219.637 68.4336C219.441 68.6289 219.262 68.8438 219.098 69.0781L218.898 67.3203H215.945V80ZM238.539 76.5195C238.539 76.7148 238.488 76.8945 238.387 77.0586C238.293 77.2227 238.148 77.3672 237.953 77.4922C237.75 77.6172 237.488 77.7188 237.168 77.7969C236.855 77.8672 236.488 77.9023 236.066 77.9023C235.715 77.9023 235.371 77.8672 235.035 77.7969C234.707 77.7266 234.414 77.6133 234.156 77.457C233.898 77.3086 233.688 77.1133 233.523 76.8711C233.359 76.6211 233.266 76.3242 233.242 75.9805H230.137C230.137 76.4961 230.262 77.0117 230.512 77.5273C230.77 78.0352 231.145 78.4883 231.637 78.8867C232.129 79.293 232.738 79.6211 233.465 79.8711C234.199 80.1211 235.043 80.2461 235.996 80.2461C236.863 80.2461 237.648 80.1523 238.352 79.9648C239.055 79.7695 239.656 79.5 240.156 79.1562C240.648 78.8125 241.027 78.4062 241.293 77.9375C241.566 77.4609 241.703 76.9414 241.703 76.3789C241.703 75.7695 241.566 75.2461 241.293 74.8086C241.027 74.3633 240.656 73.9844 240.18 73.6719C239.703 73.3672 239.137 73.1172 238.48 72.9219C237.824 72.7266 237.113 72.5664 236.348 72.4414C235.816 72.3633 235.379 72.2734 235.035 72.1719C234.691 72.0625 234.422 71.9414 234.227 71.8086C234.023 71.6836 233.883 71.543 233.805 71.3867C233.727 71.2227 233.688 71.0469 233.688 70.8594C233.688 70.6719 233.73 70.4961 233.816 70.332C233.91 70.1602 234.043 70.0117 234.215 69.8867C234.402 69.7461 234.645 69.6367 234.941 69.5586C235.238 69.4805 235.586 69.4414 235.984 69.4414C236.453 69.4414 236.852 69.5 237.18 69.6172C237.516 69.7344 237.781 69.8906 237.977 70.0859C238.117 70.2344 238.223 70.4023 238.293 70.5898C238.363 70.7695 238.398 70.9648 238.398 71.1758H241.656C241.656 70.5898 241.527 70.0469 241.27 69.5469C241.012 69.0469 240.641 68.6133 240.156 68.2461C239.664 67.8867 239.066 67.6055 238.363 67.4023C237.66 67.1914 236.867 67.0859 235.984 67.0859C235.141 67.0859 234.383 67.1914 233.711 67.4023C233.039 67.6133 232.469 67.8984 232 68.2578C231.531 68.6172 231.172 69.0352 230.922 69.5117C230.672 69.9883 230.547 70.4883 230.547 71.0117C230.547 71.5508 230.668 72.0273 230.91 72.4414C231.16 72.8555 231.504 73.2188 231.941 73.5312C232.379 73.8516 232.902 74.125 233.512 74.3516C234.129 74.5703 234.809 74.7539 235.551 74.9023C236.137 75.0117 236.621 75.1211 237.004 75.2305C237.387 75.3398 237.695 75.457 237.93 75.582C238.156 75.7148 238.312 75.8555 238.398 76.0039C238.492 76.1523 238.539 76.3242 238.539 76.5195ZM245.641 67.3203V69.9805H249.25V77.3516H245.641V80H255.977V77.3516H252.543V67.3203H245.641ZM249.016 64.0742C249.016 64.3242 249.059 64.5586 249.145 64.7773C249.238 64.9883 249.367 65.168 249.531 65.3164C249.695 65.4727 249.891 65.5938 250.117 65.6797C250.352 65.7656 250.609 65.8086 250.891 65.8086C251.469 65.8086 251.926 65.6484 252.262 65.3281C252.605 65 252.777 64.582 252.777 64.0742C252.777 63.5664 252.605 63.1523 252.262 62.832C251.926 62.5039 251.469 62.3398 250.891 62.3398C250.609 62.3398 250.352 62.3828 250.117 62.4688C249.891 62.5547 249.695 62.6719 249.531 62.8203C249.367 62.9766 249.238 63.1641 249.145 63.3828C249.059 63.5938 249.016 63.8242 249.016 64.0742ZM258.742 73.543V73.7891C258.742 74.7188 258.875 75.5781 259.141 76.3672C259.406 77.1484 259.797 77.8281 260.312 78.4062C260.82 78.9844 261.445 79.4375 262.188 79.7656C262.938 80.0859 263.789 80.2461 264.742 80.2461C265.688 80.2461 266.531 80.0859 267.273 79.7656C268.016 79.4375 268.641 78.9844 269.148 78.4062C269.656 77.8281 270.043 77.1484 270.309 76.3672C270.574 75.5781 270.707 74.7188 270.707 73.7891V73.543C270.707 72.6211 270.574 71.7695 270.309 70.9883C270.043 70.1992 269.656 69.5156 269.148 68.9375C268.633 68.3594 268.004 67.9062 267.262 67.5781C266.52 67.25 265.672 67.0859 264.719 67.0859C263.766 67.0859 262.918 67.25 262.176 67.5781C261.441 67.9062 260.82 68.3594 260.312 68.9375C259.797 69.5156 259.406 70.1992 259.141 70.9883C258.875 71.7695 258.742 72.6211 258.742 73.543ZM262 73.7891V73.543C262 73.0273 262.051 72.5391 262.152 72.0781C262.254 71.6172 262.414 71.2109 262.633 70.8594C262.852 70.5078 263.133 70.2305 263.477 70.0273C263.82 69.8242 264.234 69.7227 264.719 69.7227C265.211 69.7227 265.629 69.8242 265.973 70.0273C266.316 70.2305 266.598 70.5078 266.816 70.8594C267.027 71.2109 267.184 71.6172 267.285 72.0781C267.387 72.5391 267.438 73.0273 267.438 73.543V73.7891C267.438 74.3203 267.387 74.8203 267.285 75.2891C267.184 75.75 267.027 76.1523 266.816 76.4961C266.598 76.8477 266.316 77.125 265.973 77.3281C265.629 77.5312 265.219 77.6328 264.742 77.6328C264.25 77.6328 263.828 77.5312 263.477 77.3281C263.133 77.125 262.852 76.8477 262.633 76.4961C262.414 76.1523 262.254 75.75 262.152 75.2891C262.051 74.8203 262 74.3203 262 73.7891ZM273.602 80H276.871V70.9883C276.98 70.8164 277.102 70.6602 277.234 70.5195C277.367 70.3789 277.516 70.2578 277.68 70.1562C277.883 70.0156 278.113 69.9102 278.371 69.8398C278.637 69.7695 278.926 69.7344 279.238 69.7344C279.613 69.7344 279.949 69.7734 280.246 69.8516C280.543 69.9219 280.797 70.0508 281.008 70.2383C281.219 70.4258 281.379 70.6836 281.488 71.0117C281.605 71.332 281.664 71.7422 281.664 72.2422V80H284.922V72.1953C284.922 71.2734 284.812 70.4922 284.594 69.8516C284.383 69.2031 284.086 68.6719 283.703 68.2578C283.312 67.8516 282.852 67.5547 282.32 67.3672C281.789 67.1797 281.203 67.0859 280.562 67.0859C280.062 67.0859 279.59 67.1562 279.145 67.2969C278.699 67.4375 278.289 67.6406 277.914 67.9062C277.695 68.0625 277.488 68.2383 277.293 68.4336C277.098 68.6289 276.918 68.8438 276.754 69.0781L276.555 67.3203H273.602V80Z" fill="white"/>
</svg>
