<svg width="446" height="324" viewBox="0 0 446 324" fill="none" xmlns="http://www.w3.org/2000/svg">
<rect width="446" height="324" rx="5" fill="#FFA7A7"/>
<path d="M202.527 48H205.504L206.934 38.7891L207.062 37.9219L207.191 38.7891L208.68 48H211.656L214.023 30.9375H211L209.84 40.5L209.758 41.2148L209.652 40.5117L208.223 30.9375H205.867L204.52 40.4414L204.414 41.1445L204.332 40.4766L203.195 30.9375H200.184L202.527 48ZM222.098 48.2344C223.324 48.2344 224.387 47.9961 225.285 47.5195C226.184 47.043 226.84 46.5117 227.254 45.9258L225.625 44.168C225.25 44.6523 224.762 45.0156 224.16 45.2578C223.559 45.5 222.938 45.6211 222.297 45.6211C221.844 45.6211 221.426 45.5508 221.043 45.4102C220.66 45.2695 220.32 45.0703 220.023 44.8125C219.734 44.5625 219.504 44.2852 219.332 43.9805C219.16 43.668 219.02 43.2578 218.91 42.75V42.7148H227.512V41.332C227.512 40.4023 227.383 39.5547 227.125 38.7891C226.867 38.0156 226.492 37.3555 226 36.8086C225.5 36.2617 224.891 35.8398 224.172 35.543C223.461 35.2383 222.648 35.0859 221.734 35.0859C220.852 35.0859 220.035 35.2461 219.285 35.5664C218.535 35.8867 217.887 36.3359 217.34 36.9141C216.793 37.4922 216.367 38.1836 216.062 38.9883C215.758 39.7852 215.605 40.668 215.605 41.6367V42.1055C215.605 42.957 215.758 43.7578 216.062 44.5078C216.375 45.25 216.816 45.8945 217.387 46.4414C217.957 46.9961 218.641 47.4336 219.438 47.7539C220.234 48.0742 221.121 48.2344 222.098 48.2344ZM221.711 37.7227C222.125 37.7227 222.488 37.7891 222.801 37.9219C223.121 38.0469 223.391 38.2188 223.609 38.4375C223.828 38.6641 224 38.9297 224.125 39.2344C224.25 39.5391 224.312 39.8633 224.312 40.207V40.4648H218.969C219.047 40.0508 219.164 39.6758 219.32 39.3398C219.477 39.0039 219.672 38.7148 219.906 38.4727C220.133 38.2305 220.398 38.0469 220.703 37.9219C221.008 37.7891 221.344 37.7227 221.711 37.7227ZM241.785 41.7891V41.543C241.785 40.7773 241.715 40.0586 241.574 39.3867C241.441 38.7148 241.234 38.1094 240.953 37.5703C240.773 37.2344 240.566 36.9258 240.332 36.6445C240.098 36.3555 239.836 36.1094 239.547 35.9062C239.188 35.6406 238.777 35.4375 238.316 35.2969C237.863 35.1562 237.363 35.0859 236.816 35.0859C236.418 35.0859 236.047 35.1289 235.703 35.2148C235.367 35.293 235.055 35.4141 234.766 35.5781C234.562 35.6875 234.371 35.8203 234.191 35.9766C234.012 36.125 233.844 36.2891 233.688 36.4688V30H230.43V48H233.359L233.512 46.6523C233.645 46.8242 233.785 46.9844 233.934 47.1328C234.082 47.2734 234.242 47.4023 234.414 47.5195C234.734 47.7539 235.094 47.9297 235.492 48.0469C235.898 48.1719 236.348 48.2344 236.84 48.2344C237.379 48.2344 237.871 48.1641 238.316 48.0234C238.77 47.8906 239.176 47.6953 239.535 47.4375C239.934 47.1641 240.277 46.8203 240.566 46.4062C240.863 45.9922 241.102 45.5312 241.281 45.0234C241.445 44.5625 241.57 44.0625 241.656 43.5234C241.742 42.9766 241.785 42.3984 241.785 41.7891ZM238.527 41.543V41.7891C238.527 42.1172 238.512 42.4336 238.48 42.7383C238.457 43.043 238.414 43.3242 238.352 43.582C238.273 43.9336 238.156 44.25 238 44.5312C237.852 44.8047 237.656 45.0273 237.414 45.1992C237.242 45.3242 237.039 45.4219 236.805 45.4922C236.57 45.5625 236.309 45.5977 236.02 45.5977C235.684 45.5977 235.383 45.5586 235.117 45.4805C234.859 45.4023 234.633 45.2891 234.438 45.1406C234.273 45.0234 234.129 44.8867 234.004 44.7305C233.887 44.5664 233.781 44.3867 233.688 44.1914V39.1406C233.758 38.9922 233.836 38.8555 233.922 38.7305C234.008 38.5977 234.102 38.4805 234.203 38.3789C234.414 38.168 234.668 38.0078 234.965 37.8984C235.262 37.7891 235.605 37.7344 235.996 37.7344C236.285 37.7344 236.543 37.7695 236.77 37.8398C236.996 37.9023 237.199 38 237.379 38.1328C237.652 38.3438 237.855 38.5781 237.988 38.8359C238.129 39.0859 238.242 39.3711 238.328 39.6914C238.398 39.9648 238.449 40.2578 238.48 40.5703C238.512 40.8828 238.527 41.207 238.527 41.543Z" fill="white"/>
<path d="M160.555 277.68V248.875H153.945V283H176.539V277.68H160.555ZM183.781 248.875V254.195H190.273V277.703H183.781V283H203.516V277.703H196.859V254.195H203.516V248.875H183.781ZM233.656 283V248.875H227.047L227.023 270.789L217.602 248.875H210.969V283H217.602V260.992L227.094 283H233.656ZM260.984 268.047V262.844H246.969V254.242H263.281V248.875H240.359V283H263.352V277.68H246.969V268.047H260.984ZM280.391 270.25L286.812 283H293.867V282.695L286.531 268.609C287.469 268.188 288.312 267.688 289.062 267.109C289.828 266.531 290.484 265.852 291.031 265.07C291.562 264.305 291.969 263.438 292.25 262.469C292.547 261.484 292.695 260.383 292.695 259.164C292.695 257.477 292.398 255.992 291.805 254.711C291.227 253.43 290.398 252.359 289.32 251.5C288.227 250.641 286.914 249.992 285.383 249.555C283.852 249.102 282.141 248.875 280.25 248.875H268.812V283H275.398V270.25H280.391ZM275.398 264.906V254.219H280.25C281.156 254.219 281.961 254.328 282.664 254.547C283.367 254.766 283.961 255.078 284.445 255.484C284.992 255.938 285.398 256.516 285.664 257.219C285.945 257.906 286.086 258.703 286.086 259.609C286.086 260.359 285.977 261.039 285.758 261.648C285.555 262.258 285.25 262.781 284.844 263.219C284.359 263.766 283.727 264.188 282.945 264.484C282.18 264.766 281.289 264.906 280.273 264.906H275.398Z" fill="white"/>
<rect x="74" y="72" width="298" height="159" rx="5" fill="white"/>
<line x1="93" y1="106.5" x2="353" y2="106.5" stroke="#666666"/>
<rect x="299" y="126" width="51" height="84" rx="5" fill="#ECECEC"/>
<rect x="110" y="129" width="168" height="23" fill="#FF9E9E"/>
<rect x="110" y="155" width="168" height="22" fill="#FF9E9E"/>
<rect x="110" y="181" width="168" height="22" fill="#FF9E9E"/>
</svg>
