<svg width="372" height="107" viewBox="0 0 372 107" fill="none" xmlns="http://www.w3.org/2000/svg">
<rect width="372" height="107" rx="5" fill="#FF9E9E"/>
<path d="M89.0625 60.3398V45.9375H85.7578V63H97.0547V60.3398H89.0625ZM100.934 50.3203V52.9805H104.543V60.3516H100.934V63H111.27V60.3516H107.836V50.3203H100.934ZM104.309 47.0742C104.309 47.3242 104.352 47.5586 104.438 47.7773C104.531 47.9883 104.66 48.168 104.824 48.3164C104.988 48.4727 105.184 48.5938 105.41 48.6797C105.645 48.7656 105.902 48.8086 106.184 48.8086C106.762 48.8086 107.219 48.6484 107.555 48.3281C107.898 48 108.07 47.582 108.07 47.0742C108.07 46.5664 107.898 46.1523 107.555 45.832C107.219 45.5039 106.762 45.3398 106.184 45.3398C105.902 45.3398 105.645 45.3828 105.41 45.4688C105.184 45.5547 104.988 45.6719 104.824 45.8203C104.66 45.9766 104.531 46.1641 104.438 46.3828C104.352 46.5938 104.309 46.8242 104.309 47.0742ZM114.48 63H117.75V53.9883C117.859 53.8164 117.98 53.6602 118.113 53.5195C118.246 53.3789 118.395 53.2578 118.559 53.1562C118.762 53.0156 118.992 52.9102 119.25 52.8398C119.516 52.7695 119.805 52.7344 120.117 52.7344C120.492 52.7344 120.828 52.7734 121.125 52.8516C121.422 52.9219 121.676 53.0508 121.887 53.2383C122.098 53.4258 122.258 53.6836 122.367 54.0117C122.484 54.332 122.543 54.7422 122.543 55.2422V63H125.801V55.1953C125.801 54.2734 125.691 53.4922 125.473 52.8516C125.262 52.2031 124.965 51.6719 124.582 51.2578C124.191 50.8516 123.73 50.5547 123.199 50.3672C122.668 50.1797 122.082 50.0859 121.441 50.0859C120.941 50.0859 120.469 50.1562 120.023 50.2969C119.578 50.4375 119.168 50.6406 118.793 50.9062C118.574 51.0625 118.367 51.2383 118.172 51.4336C117.977 51.6289 117.797 51.8438 117.633 52.0781L117.434 50.3203H114.48V63ZM135.047 63.2344C136.273 63.2344 137.336 62.9961 138.234 62.5195C139.133 62.043 139.789 61.5117 140.203 60.9258L138.574 59.168C138.199 59.6523 137.711 60.0156 137.109 60.2578C136.508 60.5 135.887 60.6211 135.246 60.6211C134.793 60.6211 134.375 60.5508 133.992 60.4102C133.609 60.2695 133.27 60.0703 132.973 59.8125C132.684 59.5625 132.453 59.2852 132.281 58.9805C132.109 58.668 131.969 58.2578 131.859 57.75V57.7148H140.461V56.332C140.461 55.4023 140.332 54.5547 140.074 53.7891C139.816 53.0156 139.441 52.3555 138.949 51.8086C138.449 51.2617 137.84 50.8398 137.121 50.543C136.41 50.2383 135.598 50.0859 134.684 50.0859C133.801 50.0859 132.984 50.2461 132.234 50.5664C131.484 50.8867 130.836 51.3359 130.289 51.9141C129.742 52.4922 129.316 53.1836 129.012 53.9883C128.707 54.7852 128.555 55.668 128.555 56.6367V57.1055C128.555 57.957 128.707 58.7578 129.012 59.5078C129.324 60.25 129.766 60.8945 130.336 61.4414C130.906 61.9961 131.59 62.4336 132.387 62.7539C133.184 63.0742 134.07 63.2344 135.047 63.2344ZM134.66 52.7227C135.074 52.7227 135.438 52.7891 135.75 52.9219C136.07 53.0469 136.34 53.2188 136.559 53.4375C136.777 53.6641 136.949 53.9297 137.074 54.2344C137.199 54.5391 137.262 54.8633 137.262 55.207V55.4648H131.918C131.996 55.0508 132.113 54.6758 132.27 54.3398C132.426 54.0039 132.621 53.7148 132.855 53.4727C133.082 53.2305 133.348 53.0469 133.652 52.9219C133.957 52.7891 134.293 52.7227 134.66 52.7227ZM152.414 50.0859C151.562 50.0859 150.777 50.293 150.059 50.707C149.34 51.1133 148.723 51.6758 148.207 52.3945L148.184 52.1133L148.055 50.3203H145.02V63H148.277V55.3828C148.426 55.0234 148.613 54.7109 148.84 54.4453C149.066 54.1797 149.34 53.9609 149.66 53.7891C149.926 53.6406 150.227 53.5312 150.562 53.4609C150.906 53.3828 151.289 53.3438 151.711 53.3438C152.117 53.3438 152.543 53.3711 152.988 53.4258C153.441 53.4727 153.883 53.5469 154.312 53.6484L154.793 50.4023C154.535 50.3242 154.195 50.2539 153.773 50.1914C153.359 50.1211 152.906 50.0859 152.414 50.0859ZM173.074 63H175.934L177.281 56.2266L177.539 54.9375L177.809 56.2266L179.203 63H182.062L184.336 50.3203H181.348L180.41 57.7969L180.246 59.0273L180.023 57.8203L178.652 50.3203H176.473L175.102 57.8555L174.879 59.0625L174.727 57.8555L173.777 50.3203H170.801L173.074 63ZM192.703 63.2344C193.93 63.2344 194.992 62.9961 195.891 62.5195C196.789 62.043 197.445 61.5117 197.859 60.9258L196.23 59.168C195.855 59.6523 195.367 60.0156 194.766 60.2578C194.164 60.5 193.543 60.6211 192.902 60.6211C192.449 60.6211 192.031 60.5508 191.648 60.4102C191.266 60.2695 190.926 60.0703 190.629 59.8125C190.34 59.5625 190.109 59.2852 189.938 58.9805C189.766 58.668 189.625 58.2578 189.516 57.75V57.7148H198.117V56.332C198.117 55.4023 197.988 54.5547 197.73 53.7891C197.473 53.0156 197.098 52.3555 196.605 51.8086C196.105 51.2617 195.496 50.8398 194.777 50.543C194.066 50.2383 193.254 50.0859 192.34 50.0859C191.457 50.0859 190.641 50.2461 189.891 50.5664C189.141 50.8867 188.492 51.3359 187.945 51.9141C187.398 52.4922 186.973 53.1836 186.668 53.9883C186.363 54.7852 186.211 55.668 186.211 56.6367V57.1055C186.211 57.957 186.363 58.7578 186.668 59.5078C186.98 60.25 187.422 60.8945 187.992 61.4414C188.562 61.9961 189.246 62.4336 190.043 62.7539C190.84 63.0742 191.727 63.2344 192.703 63.2344ZM192.316 52.7227C192.73 52.7227 193.094 52.7891 193.406 52.9219C193.727 53.0469 193.996 53.2188 194.215 53.4375C194.434 53.6641 194.605 53.9297 194.73 54.2344C194.855 54.5391 194.918 54.8633 194.918 55.207V55.4648H189.574C189.652 55.0508 189.77 54.6758 189.926 54.3398C190.082 54.0039 190.277 53.7148 190.512 53.4727C190.738 53.2305 191.004 53.0469 191.309 52.9219C191.613 52.7891 191.949 52.7227 192.316 52.7227ZM212.391 56.7891V56.543C212.391 55.7773 212.32 55.0586 212.18 54.3867C212.047 53.7148 211.84 53.1094 211.559 52.5703C211.379 52.2344 211.172 51.9258 210.938 51.6445C210.703 51.3555 210.441 51.1094 210.152 50.9062C209.793 50.6406 209.383 50.4375 208.922 50.2969C208.469 50.1562 207.969 50.0859 207.422 50.0859C207.023 50.0859 206.652 50.1289 206.309 50.2148C205.973 50.293 205.66 50.4141 205.371 50.5781C205.168 50.6875 204.977 50.8203 204.797 50.9766C204.617 51.125 204.449 51.2891 204.293 51.4688V45H201.035V63H203.965L204.117 61.6523C204.25 61.8242 204.391 61.9844 204.539 62.1328C204.688 62.2734 204.848 62.4023 205.02 62.5195C205.34 62.7539 205.699 62.9297 206.098 63.0469C206.504 63.1719 206.953 63.2344 207.445 63.2344C207.984 63.2344 208.477 63.1641 208.922 63.0234C209.375 62.8906 209.781 62.6953 210.141 62.4375C210.539 62.1641 210.883 61.8203 211.172 61.4062C211.469 60.9922 211.707 60.5312 211.887 60.0234C212.051 59.5625 212.176 59.0625 212.262 58.5234C212.348 57.9766 212.391 57.3984 212.391 56.7891ZM209.133 56.543V56.7891C209.133 57.1172 209.117 57.4336 209.086 57.7383C209.062 58.043 209.02 58.3242 208.957 58.582C208.879 58.9336 208.762 59.25 208.605 59.5312C208.457 59.8047 208.262 60.0273 208.02 60.1992C207.848 60.3242 207.645 60.4219 207.41 60.4922C207.176 60.5625 206.914 60.5977 206.625 60.5977C206.289 60.5977 205.988 60.5586 205.723 60.4805C205.465 60.4023 205.238 60.2891 205.043 60.1406C204.879 60.0234 204.734 59.8867 204.609 59.7305C204.492 59.5664 204.387 59.3867 204.293 59.1914V54.1406C204.363 53.9922 204.441 53.8555 204.527 53.7305C204.613 53.5977 204.707 53.4805 204.809 53.3789C205.02 53.168 205.273 53.0078 205.57 52.8984C205.867 52.7891 206.211 52.7344 206.602 52.7344C206.891 52.7344 207.148 52.7695 207.375 52.8398C207.602 52.9023 207.805 53 207.984 53.1328C208.258 53.3438 208.461 53.5781 208.594 53.8359C208.734 54.0859 208.848 54.3711 208.934 54.6914C209.004 54.9648 209.055 55.2578 209.086 55.5703C209.117 55.8828 209.133 56.207 209.133 56.543Z" fill="white"/>
<path d="M258.358 25.0204C252.393 25.0205 246.672 27.39 242.454 31.6079C238.236 35.8257 235.867 41.5463 235.867 47.5113C235.867 53.4763 238.236 59.1969 242.454 63.4148C246.672 67.6327 252.393 70.0023 258.358 70.0023C264.323 70.0023 270.043 67.6327 274.261 63.4148C278.479 59.1969 280.849 53.4763 280.849 47.5113C280.849 41.5463 278.479 35.8257 274.261 31.6079C270.043 27.39 264.323 25.0205 258.358 25.0204ZM258.358 28.9298C260.85 28.9298 263.317 29.4104 265.619 30.3442C267.921 31.278 270.013 32.6467 271.774 34.3721C273.536 36.0976 274.934 38.146 275.888 40.4004C276.841 42.6548 277.332 45.0711 277.332 47.5113C277.332 49.9514 276.841 52.3677 275.888 54.6221C274.934 56.8766 273.536 58.925 271.774 60.6504C270.013 62.3759 267.921 63.7446 265.619 64.6784C263.317 65.6122 260.85 66.0928 258.358 66.0928C253.326 66.0928 248.5 64.1351 244.941 60.6504C241.383 57.1657 239.384 52.4394 239.384 47.5113C239.384 42.5832 241.383 37.8569 244.941 34.3722C248.5 30.8875 253.326 28.9298 258.358 28.9298Z" fill="white"/>
<path d="M285.18 75.645L275.021 63.868C273.27 61.8379 271.133 61.1316 270.248 62.2905C269.363 63.4494 270.065 66.0346 271.816 68.0647L281.975 79.8417C283.726 81.8718 285.863 82.5781 286.748 81.4192C287.633 80.2603 286.931 77.6751 285.18 75.645Z" fill="white"/>
</svg>
