<svg width="36" height="36" viewBox="0 0 36 36" fill="none" xmlns="http://www.w3.org/2000/svg">
<path fill-rule="evenodd" clip-rule="evenodd" d="M18 36C27.9411 36 36 27.9411 36 18C36 8.0589 27.9411 0 18 0C8.05888 0 0 8.0589 0 18C0 27.9411 8.05888 36 18 36ZM3.84444 23.8492C3.84444 26.3298 5.86227 28.3477 8.34284 28.3477H27.3544C29.8346 28.3477 31.8525 26.3298 31.8525 23.8492V11.8472C31.8525 9.36694 29.8346 7.34882 27.3544 7.34882H8.34284C5.86258 7.34882 3.84444 9.36694 3.84444 11.8472V23.8492ZM5.15989 11.8472C5.15989 10.092 6.58768 8.66425 8.34284 8.66425H27.3544C29.1095 8.66425 30.5373 10.092 30.5373 11.8472V23.8492C30.5373 25.6044 29.1095 27.0325 27.3544 27.0325H8.34284C6.58768 27.0325 5.15989 25.6044 5.15989 23.8492V11.8472ZM14.6212 19.0618L17.368 21.7383C17.517 21.8835 17.6851 21.9399 17.8462 21.9333C18.0086 21.9412 18.1784 21.8851 18.3289 21.7384L21.1056 19.0328L25.3755 23.0818L27.4175 25.0184C28.0521 25.6199 29.0146 24.6605 28.3785 24.0574C26.2789 22.0662 24.179 20.0752 22.0794 18.084L28.4156 11.9101C29.0429 11.2986 28.0816 10.3383 27.4546 10.9491L17.8485 20.3092L8.24232 10.949C7.61557 10.3381 6.65365 11.2982 7.28134 11.9097L13.6474 18.1129C11.558 20.0944 9.46839 22.0756 7.37905 24.0571C6.74327 24.6602 7.70519 25.6202 8.34003 25.0181L11.5144 22.0078C12.55 21.0258 13.5856 20.0438 14.6212 19.0618Z" fill="black"/>
</svg>
