<svg width="446" height="472" viewBox="0 0 446 472" fill="none" xmlns="http://www.w3.org/2000/svg">
<rect width="446" height="472" rx="5" fill="#AED5B9"/>
<path d="M121.367 405.477V399.57C121.367 398.367 121.281 397.219 121.109 396.125C120.938 395.016 120.68 393.977 120.336 393.008C119.867 391.633 119.227 390.391 118.414 389.281C117.602 388.172 116.656 387.234 115.578 386.469C114.625 385.812 113.562 385.305 112.391 384.945C111.219 384.586 109.961 384.406 108.617 384.406C107.273 384.406 106.031 384.586 104.891 384.945C103.75 385.305 102.719 385.812 101.797 386.469C100.781 387.188 99.9062 388.062 99.1719 389.094C98.4375 390.109 97.8516 391.25 97.4141 392.516C97.0391 393.531 96.75 394.641 96.5469 395.844C96.3594 397.031 96.2656 398.273 96.2656 399.57V405.477C96.2656 406.602 96.3672 407.703 96.5703 408.781C96.7734 409.844 97.0703 410.852 97.4609 411.805C97.8984 412.898 98.4688 413.922 99.1719 414.875C99.8906 415.828 100.727 416.648 101.68 417.336C102.617 418.008 103.664 418.531 104.82 418.906C105.977 419.281 107.242 419.469 108.617 419.469C109.227 419.469 109.812 419.43 110.375 419.352C110.953 419.273 111.516 419.164 112.062 419.023L118.555 425.023L122.797 421.25L117.148 416.141C117.758 415.562 118.297 414.93 118.766 414.242C119.25 413.539 119.664 412.805 120.008 412.039C120.445 411.055 120.773 410.008 120.992 408.898C121.227 407.789 121.352 406.648 121.367 405.477ZM114.688 399.523V405.477C114.688 406.102 114.648 406.727 114.57 407.352C114.492 407.961 114.375 408.555 114.219 409.133C114 409.898 113.695 410.617 113.305 411.289C112.93 411.961 112.469 412.523 111.922 412.977C111.484 413.305 110.992 413.57 110.445 413.773C109.898 413.961 109.289 414.055 108.617 414.055C107.961 414.055 107.367 413.961 106.836 413.773C106.32 413.586 105.867 413.32 105.477 412.977C104.93 412.523 104.477 411.953 104.117 411.266C103.758 410.578 103.484 409.812 103.297 408.969C103.172 408.422 103.078 407.852 103.016 407.258C102.969 406.664 102.945 406.07 102.945 405.477V399.523C102.945 398.82 102.969 398.148 103.016 397.508C103.062 396.852 103.133 396.234 103.227 395.656C103.383 394.656 103.633 393.758 103.977 392.961C104.336 392.148 104.812 391.484 105.406 390.969C105.812 390.609 106.281 390.336 106.812 390.148C107.344 389.961 107.945 389.867 108.617 389.867C109.32 389.867 109.953 389.969 110.516 390.172C111.094 390.375 111.602 390.656 112.039 391.016C112.492 391.438 112.898 391.953 113.258 392.562C113.617 393.156 113.891 393.82 114.078 394.555C114.297 395.258 114.453 396.031 114.547 396.875C114.641 397.719 114.688 398.602 114.688 399.523ZM142.953 419H148.859V393.641H142.32V411.43C142.117 411.836 141.875 412.203 141.594 412.531C141.312 412.859 140.992 413.141 140.633 413.375C140.211 413.641 139.719 413.844 139.156 413.984C138.609 414.125 137.992 414.195 137.305 414.195C136.539 414.195 135.891 414.102 135.359 413.914C134.828 413.727 134.398 413.414 134.07 412.977C133.742 412.555 133.5 411.992 133.344 411.289C133.203 410.586 133.133 409.719 133.133 408.688V393.641H126.617V408.641C126.617 410.562 126.828 412.211 127.25 413.586C127.688 414.945 128.297 416.062 129.078 416.938C129.859 417.828 130.797 418.477 131.891 418.883C132.984 419.289 134.188 419.492 135.5 419.492C136.938 419.492 138.258 419.133 139.461 418.414C140.68 417.695 141.719 416.703 142.578 415.438L142.953 419ZM171.078 419H177.688V418.602C177.359 417.961 177.109 417.195 176.938 416.305C176.766 415.414 176.68 414.289 176.68 412.93V402.055C176.68 400.586 176.406 399.297 175.859 398.188C175.312 397.062 174.555 396.133 173.586 395.398C172.617 394.664 171.469 394.109 170.141 393.734C168.828 393.359 167.406 393.172 165.875 393.172C164.172 393.172 162.656 393.391 161.328 393.828C160.016 394.25 158.906 394.828 158 395.562C157.078 396.297 156.375 397.148 155.891 398.117C155.422 399.086 155.188 400.109 155.188 401.188H161.703C161.703 400.734 161.766 400.32 161.891 399.945C162.031 399.57 162.242 399.25 162.523 398.984C162.836 398.688 163.242 398.461 163.742 398.305C164.242 398.133 164.836 398.047 165.523 398.047C166.305 398.047 166.984 398.148 167.562 398.352C168.156 398.539 168.648 398.812 169.039 399.172C169.414 399.516 169.695 399.93 169.883 400.414C170.07 400.883 170.164 401.414 170.164 402.008V403.508H166.531C164.656 403.508 162.992 403.68 161.539 404.023C160.102 404.352 158.891 404.836 157.906 405.477C156.812 406.18 155.992 407.078 155.445 408.172C154.898 409.25 154.625 410.492 154.625 411.898C154.625 412.992 154.844 414.008 155.281 414.945C155.719 415.867 156.328 416.664 157.109 417.336C157.891 418.008 158.82 418.531 159.898 418.906C160.992 419.281 162.188 419.469 163.484 419.469C164.281 419.469 165.023 419.391 165.711 419.234C166.398 419.094 167.031 418.891 167.609 418.625C168.172 418.375 168.688 418.078 169.156 417.734C169.625 417.391 170.039 417.023 170.398 416.633C170.477 417.086 170.57 417.516 170.68 417.922C170.789 418.328 170.922 418.688 171.078 419ZM164.867 414.43C164.258 414.43 163.719 414.359 163.25 414.219C162.797 414.062 162.414 413.859 162.102 413.609C161.789 413.344 161.547 413.023 161.375 412.648C161.219 412.258 161.141 411.836 161.141 411.383C161.141 410.805 161.25 410.273 161.469 409.789C161.688 409.289 162.023 408.859 162.477 408.5C162.93 408.156 163.516 407.891 164.234 407.703C164.953 407.5 165.82 407.398 166.836 407.398H170.164V411.758C169.977 412.086 169.719 412.414 169.391 412.742C169.062 413.055 168.672 413.336 168.219 413.586C167.766 413.836 167.258 414.039 166.695 414.195C166.133 414.352 165.523 414.43 164.867 414.43ZM184.062 419H190.602V400.977C190.82 400.633 191.062 400.32 191.328 400.039C191.594 399.758 191.891 399.516 192.219 399.312C192.625 399.031 193.086 398.82 193.602 398.68C194.133 398.539 194.711 398.469 195.336 398.469C196.086 398.469 196.758 398.547 197.352 398.703C197.945 398.844 198.453 399.102 198.875 399.477C199.297 399.852 199.617 400.367 199.836 401.023C200.07 401.664 200.188 402.484 200.188 403.484V419H206.703V403.391C206.703 401.547 206.484 399.984 206.047 398.703C205.625 397.406 205.031 396.344 204.266 395.516C203.484 394.703 202.562 394.109 201.5 393.734C200.438 393.359 199.266 393.172 197.984 393.172C196.984 393.172 196.039 393.312 195.148 393.594C194.258 393.875 193.438 394.281 192.688 394.812C192.25 395.125 191.836 395.477 191.445 395.867C191.055 396.258 190.695 396.688 190.367 397.156L189.969 393.641H184.062V419ZM224.844 387.43H218.328V393.641H212.539V398.445H218.328V409.977C218.328 411.648 218.547 413.086 218.984 414.289C219.422 415.477 220.047 416.453 220.859 417.219C221.656 418 222.617 418.578 223.742 418.953C224.883 419.312 226.148 419.492 227.539 419.492C228.258 419.492 228.984 419.453 229.719 419.375C230.469 419.312 231.188 419.219 231.875 419.094C232.562 418.969 233.211 418.812 233.82 418.625C234.43 418.422 234.961 418.188 235.414 417.922L234.781 413.445C234.484 413.523 234.125 413.602 233.703 413.68C233.297 413.758 232.859 413.828 232.391 413.891C231.906 413.969 231.398 414.031 230.867 414.078C230.352 414.125 229.844 414.148 229.344 414.148C228.656 414.148 228.031 414.07 227.469 413.914C226.922 413.758 226.453 413.492 226.062 413.117C225.672 412.758 225.367 412.273 225.148 411.664C224.945 411.039 224.844 410.266 224.844 409.344V398.445H234.312V393.641H224.844V387.43ZM265.18 408.312H258.594C258.531 409.344 258.359 410.227 258.078 410.961C257.797 411.695 257.414 412.297 256.93 412.766C256.445 413.234 255.859 413.578 255.172 413.797C254.484 414.016 253.711 414.125 252.852 414.125C252.211 414.125 251.625 414.055 251.094 413.914C250.578 413.758 250.109 413.523 249.688 413.211C249.297 412.93 248.945 412.578 248.633 412.156C248.336 411.734 248.078 411.25 247.859 410.703C247.547 409.906 247.312 408.977 247.156 407.914C247.016 406.836 246.945 405.617 246.945 404.258V399.617C246.945 398.617 246.992 397.688 247.086 396.828C247.18 395.953 247.328 395.156 247.531 394.438C247.797 393.516 248.148 392.711 248.586 392.023C249.039 391.32 249.586 390.781 250.227 390.406C250.602 390.188 251.008 390.023 251.445 389.914C251.898 389.805 252.383 389.75 252.898 389.75C253.867 389.75 254.695 389.883 255.383 390.148C256.086 390.398 256.672 390.773 257.141 391.273C257.594 391.789 257.938 392.43 258.172 393.195C258.422 393.961 258.578 394.852 258.641 395.867H265.203C265.047 394.086 264.672 392.484 264.078 391.062C263.484 389.641 262.672 388.438 261.641 387.453C260.609 386.469 259.359 385.711 257.891 385.18C256.438 384.648 254.773 384.383 252.898 384.383C251.633 384.383 250.445 384.547 249.336 384.875C248.242 385.188 247.234 385.641 246.312 386.234C245.281 386.938 244.359 387.797 243.547 388.812C242.734 389.828 242.078 390.984 241.578 392.281C241.141 393.344 240.812 394.5 240.594 395.75C240.375 396.984 240.266 398.289 240.266 399.664V404.258C240.266 405.727 240.383 407.117 240.617 408.43C240.867 409.742 241.219 410.945 241.672 412.039C242.141 413.133 242.711 414.133 243.383 415.039C244.07 415.945 244.852 416.719 245.727 417.359C246.68 418.047 247.75 418.578 248.938 418.953C250.141 419.312 251.445 419.492 252.852 419.492C254.633 419.492 256.258 419.234 257.727 418.719C259.195 418.188 260.461 417.438 261.523 416.469C262.586 415.5 263.43 414.328 264.055 412.953C264.695 411.578 265.07 410.031 265.18 408.312ZM286.391 419H293V418.602C292.672 417.961 292.422 417.195 292.25 416.305C292.078 415.414 291.992 414.289 291.992 412.93V402.055C291.992 400.586 291.719 399.297 291.172 398.188C290.625 397.062 289.867 396.133 288.898 395.398C287.93 394.664 286.781 394.109 285.453 393.734C284.141 393.359 282.719 393.172 281.188 393.172C279.484 393.172 277.969 393.391 276.641 393.828C275.328 394.25 274.219 394.828 273.312 395.562C272.391 396.297 271.688 397.148 271.203 398.117C270.734 399.086 270.5 400.109 270.5 401.188H277.016C277.016 400.734 277.078 400.32 277.203 399.945C277.344 399.57 277.555 399.25 277.836 398.984C278.148 398.688 278.555 398.461 279.055 398.305C279.555 398.133 280.148 398.047 280.836 398.047C281.617 398.047 282.297 398.148 282.875 398.352C283.469 398.539 283.961 398.812 284.352 399.172C284.727 399.516 285.008 399.93 285.195 400.414C285.383 400.883 285.477 401.414 285.477 402.008V403.508H281.844C279.969 403.508 278.305 403.68 276.852 404.023C275.414 404.352 274.203 404.836 273.219 405.477C272.125 406.18 271.305 407.078 270.758 408.172C270.211 409.25 269.938 410.492 269.938 411.898C269.938 412.992 270.156 414.008 270.594 414.945C271.031 415.867 271.641 416.664 272.422 417.336C273.203 418.008 274.133 418.531 275.211 418.906C276.305 419.281 277.5 419.469 278.797 419.469C279.594 419.469 280.336 419.391 281.023 419.234C281.711 419.094 282.344 418.891 282.922 418.625C283.484 418.375 284 418.078 284.469 417.734C284.938 417.391 285.352 417.023 285.711 416.633C285.789 417.086 285.883 417.516 285.992 417.922C286.102 418.328 286.234 418.688 286.391 419ZM280.18 414.43C279.57 414.43 279.031 414.359 278.562 414.219C278.109 414.062 277.727 413.859 277.414 413.609C277.102 413.344 276.859 413.023 276.688 412.648C276.531 412.258 276.453 411.836 276.453 411.383C276.453 410.805 276.562 410.273 276.781 409.789C277 409.289 277.336 408.859 277.789 408.5C278.242 408.156 278.828 407.891 279.547 407.703C280.266 407.5 281.133 407.398 282.148 407.398H285.477V411.758C285.289 412.086 285.031 412.414 284.703 412.742C284.375 413.055 283.984 413.336 283.531 413.586C283.078 413.836 282.57 414.039 282.008 414.195C281.445 414.352 280.836 414.43 280.18 414.43ZM315.734 412.039C315.734 412.43 315.633 412.789 315.43 413.117C315.242 413.445 314.953 413.734 314.562 413.984C314.156 414.234 313.633 414.438 312.992 414.594C312.367 414.734 311.633 414.805 310.789 414.805C310.086 414.805 309.398 414.734 308.727 414.594C308.07 414.453 307.484 414.227 306.969 413.914C306.453 413.617 306.031 413.227 305.703 412.742C305.375 412.242 305.188 411.648 305.141 410.961H298.93C298.93 411.992 299.18 413.023 299.68 414.055C300.195 415.07 300.945 415.977 301.93 416.773C302.914 417.586 304.133 418.242 305.586 418.742C307.055 419.242 308.742 419.492 310.648 419.492C312.383 419.492 313.953 419.305 315.359 418.93C316.766 418.539 317.969 418 318.969 417.312C319.953 416.625 320.711 415.812 321.242 414.875C321.789 413.922 322.062 412.883 322.062 411.758C322.062 410.539 321.789 409.492 321.242 408.617C320.711 407.727 319.969 406.969 319.016 406.344C318.062 405.734 316.93 405.234 315.617 404.844C314.305 404.453 312.883 404.133 311.352 403.883C310.289 403.727 309.414 403.547 308.727 403.344C308.039 403.125 307.5 402.883 307.109 402.617C306.703 402.367 306.422 402.086 306.266 401.773C306.109 401.445 306.031 401.094 306.031 400.719C306.031 400.344 306.117 399.992 306.289 399.664C306.477 399.32 306.742 399.023 307.086 398.773C307.461 398.492 307.945 398.273 308.539 398.117C309.133 397.961 309.828 397.883 310.625 397.883C311.562 397.883 312.359 398 313.016 398.234C313.688 398.469 314.219 398.781 314.609 399.172C314.891 399.469 315.102 399.805 315.242 400.18C315.383 400.539 315.453 400.93 315.453 401.352H321.969C321.969 400.18 321.711 399.094 321.195 398.094C320.68 397.094 319.938 396.227 318.969 395.492C317.984 394.773 316.789 394.211 315.383 393.805C313.977 393.383 312.391 393.172 310.625 393.172C308.938 393.172 307.422 393.383 306.078 393.805C304.734 394.227 303.594 394.797 302.656 395.516C301.719 396.234 301 397.07 300.5 398.023C300 398.977 299.75 399.977 299.75 401.023C299.75 402.102 299.992 403.055 300.477 403.883C300.977 404.711 301.664 405.438 302.539 406.062C303.414 406.703 304.461 407.25 305.68 407.703C306.914 408.141 308.273 408.508 309.758 408.805C310.93 409.023 311.898 409.242 312.664 409.461C313.43 409.68 314.047 409.914 314.516 410.164C314.969 410.43 315.281 410.711 315.453 411.008C315.641 411.305 315.734 411.648 315.734 412.039ZM334.719 397.133V383H328.203V419H334.719V400.695C334.969 400.367 335.242 400.07 335.539 399.805C335.852 399.539 336.195 399.312 336.57 399.125C336.977 398.906 337.43 398.742 337.93 398.633C338.43 398.523 338.969 398.469 339.547 398.469C340.297 398.469 340.969 398.57 341.562 398.773C342.156 398.961 342.664 399.258 343.086 399.664C343.508 400.07 343.828 400.602 344.047 401.258C344.281 401.914 344.398 402.695 344.398 403.602V419H350.914V403.648C350.914 401.789 350.688 400.203 350.234 398.891C349.797 397.562 349.18 396.477 348.383 395.633C347.586 394.789 346.633 394.172 345.523 393.781C344.414 393.375 343.195 393.172 341.867 393.172C340.961 393.172 340.102 393.305 339.289 393.57C338.477 393.836 337.734 394.211 337.062 394.695C336.625 395.008 336.203 395.375 335.797 395.797C335.406 396.203 335.047 396.648 334.719 397.133Z" fill="white"/>
<rect x="71" y="318" width="312" height="36" fill="white"/>
<path d="M340.673 51H291.142C286.396 51 284.02 56.736 287.376 60.0926L302.765 75.4814L212.955 165.292L181.505 133.842L173.076 125.414C170.224 122.562 165.601 122.562 162.749 125.414L109.139 179.021C106.287 181.873 106.287 186.496 109.139 189.348L117.568 197.777C120.42 200.629 125.043 200.629 127.895 197.777L167.911 157.761L207.729 197.578C210.581 200.43 215.204 200.43 218.056 197.578L222.342 193.292C222.562 193.117 222.794 192.96 222.998 192.755L321.519 94.2349L336.907 109.624C340.264 112.98 346 110.604 346 105.858V56.327C346 53.3847 343.615 51 340.673 51Z" fill="#E6FFDB"/>
<path d="M281.272 151.379V282.696C281.272 286.73 284.541 289.999 288.575 289.999H311.896C315.93 289.999 319.199 286.73 319.199 282.696V113.453L281.272 151.379Z" fill="#E6FFDB"/>
<path d="M232.116 200.539V282.696C232.116 286.73 235.385 289.999 239.419 289.999H262.74C266.773 289.999 270.042 286.73 270.042 282.696V162.612L232.116 200.539Z" fill="#E6FFDB"/>
<path d="M212.892 211.668C207.748 211.668 202.915 209.666 199.277 206.028L182.956 189.71V282.696C182.956 286.73 186.225 289.999 190.259 289.999H213.58C217.614 289.999 220.883 286.73 220.883 282.696V209.918C218.405 211.052 215.699 211.668 212.892 211.668Z" fill="#E6FFDB"/>
<path d="M167.91 174.661L136.346 206.224C135.555 207.016 134.697 207.717 133.799 208.349V282.696C133.799 286.73 137.068 289.999 141.102 289.999H164.423C168.457 289.999 171.726 286.73 171.726 282.696V178.477L167.91 174.661Z" fill="#E6FFDB"/>
</svg>
