<svg width="372" height="107" viewBox="0 0 372 107" fill="none" xmlns="http://www.w3.org/2000/svg">
<rect width="372" height="107" rx="5" fill="#AED5B9"/>
<path d="M97.6836 59.2383V56.2852C97.6836 55.6836 97.6406 55.1094 97.5547 54.5625C97.4688 54.0078 97.3398 53.4883 97.168 53.0039C96.9336 52.3164 96.6133 51.6953 96.207 51.1406C95.8008 50.5859 95.3281 50.1172 94.7891 49.7344C94.3125 49.4062 93.7812 49.1523 93.1953 48.9727C92.6094 48.793 91.9805 48.7031 91.3086 48.7031C90.6367 48.7031 90.0156 48.793 89.4453 48.9727C88.875 49.1523 88.3594 49.4062 87.8984 49.7344C87.3906 50.0938 86.9531 50.5312 86.5859 51.0469C86.2188 51.5547 85.9258 52.125 85.707 52.7578C85.5195 53.2656 85.375 53.8203 85.2734 54.4219C85.1797 55.0156 85.1328 55.6367 85.1328 56.2852V59.2383C85.1328 59.8008 85.1836 60.3516 85.2852 60.8906C85.3867 61.4219 85.5352 61.9258 85.7305 62.4023C85.9492 62.9492 86.2344 63.4609 86.5859 63.9375C86.9453 64.4141 87.3633 64.8242 87.8398 65.168C88.3086 65.5039 88.832 65.7656 89.4102 65.9531C89.9883 66.1406 90.6211 66.2344 91.3086 66.2344C91.6133 66.2344 91.9062 66.2148 92.1875 66.1758C92.4766 66.1367 92.7578 66.082 93.0312 66.0117L96.2773 69.0117L98.3984 67.125L95.5742 64.5703C95.8789 64.2812 96.1484 63.9648 96.3828 63.6211C96.625 63.2695 96.832 62.9023 97.0039 62.5195C97.2227 62.0273 97.3867 61.5039 97.4961 60.9492C97.6133 60.3945 97.6758 59.8242 97.6836 59.2383ZM94.3438 56.2617V59.2383C94.3438 59.5508 94.3242 59.8633 94.2852 60.1758C94.2461 60.4805 94.1875 60.7773 94.1094 61.0664C94 61.4492 93.8477 61.8086 93.6523 62.1445C93.4648 62.4805 93.2344 62.7617 92.9609 62.9883C92.7422 63.1523 92.4961 63.2852 92.2227 63.3867C91.9492 63.4805 91.6445 63.5273 91.3086 63.5273C90.9805 63.5273 90.6836 63.4805 90.418 63.3867C90.1602 63.293 89.9336 63.1602 89.7383 62.9883C89.4648 62.7617 89.2383 62.4766 89.0586 62.1328C88.8789 61.7891 88.7422 61.4062 88.6484 60.9844C88.5859 60.7109 88.5391 60.4258 88.5078 60.1289C88.4844 59.832 88.4727 59.5352 88.4727 59.2383V56.2617C88.4727 55.9102 88.4844 55.5742 88.5078 55.2539C88.5312 54.9258 88.5664 54.6172 88.6133 54.3281C88.6914 53.8281 88.8164 53.3789 88.9883 52.9805C89.168 52.5742 89.4062 52.2422 89.7031 51.9844C89.9062 51.8047 90.1406 51.668 90.4062 51.5742C90.6719 51.4805 90.9727 51.4336 91.3086 51.4336C91.6602 51.4336 91.9766 51.4844 92.2578 51.5859C92.5469 51.6875 92.8008 51.8281 93.0195 52.0078C93.2461 52.2188 93.4492 52.4766 93.6289 52.7812C93.8086 53.0781 93.9453 53.4102 94.0391 53.7773C94.1484 54.1289 94.2266 54.5156 94.2734 54.9375C94.3203 55.3594 94.3438 55.8008 94.3438 56.2617ZM108.477 66H111.43V53.3203H108.16V62.2148C108.059 62.418 107.938 62.6016 107.797 62.7656C107.656 62.9297 107.496 63.0703 107.316 63.1875C107.105 63.3203 106.859 63.4219 106.578 63.4922C106.305 63.5625 105.996 63.5977 105.652 63.5977C105.27 63.5977 104.945 63.5508 104.68 63.457C104.414 63.3633 104.199 63.207 104.035 62.9883C103.871 62.7773 103.75 62.4961 103.672 62.1445C103.602 61.793 103.566 61.3594 103.566 60.8438V53.3203H100.309V60.8203C100.309 61.7812 100.414 62.6055 100.625 63.293C100.844 63.9727 101.148 64.5312 101.539 64.9688C101.93 65.4141 102.398 65.7383 102.945 65.9414C103.492 66.1445 104.094 66.2461 104.75 66.2461C105.469 66.2461 106.129 66.0664 106.73 65.707C107.34 65.3477 107.859 64.8516 108.289 64.2188L108.477 66ZM122.539 66H125.844V65.8008C125.68 65.4805 125.555 65.0977 125.469 64.6523C125.383 64.207 125.34 63.6445 125.34 62.9648V57.5273C125.34 56.793 125.203 56.1484 124.93 55.5938C124.656 55.0312 124.277 54.5664 123.793 54.1992C123.309 53.832 122.734 53.5547 122.07 53.3672C121.414 53.1797 120.703 53.0859 119.938 53.0859C119.086 53.0859 118.328 53.1953 117.664 53.4141C117.008 53.625 116.453 53.9141 116 54.2812C115.539 54.6484 115.188 55.0742 114.945 55.5586C114.711 56.043 114.594 56.5547 114.594 57.0938H117.852C117.852 56.8672 117.883 56.6602 117.945 56.4727C118.016 56.2852 118.121 56.125 118.262 55.9922C118.418 55.8438 118.621 55.7305 118.871 55.6523C119.121 55.5664 119.418 55.5234 119.762 55.5234C120.152 55.5234 120.492 55.5742 120.781 55.6758C121.078 55.7695 121.324 55.9062 121.52 56.0859C121.707 56.2578 121.848 56.4648 121.941 56.707C122.035 56.9414 122.082 57.207 122.082 57.5039V58.2539H120.266C119.328 58.2539 118.496 58.3398 117.77 58.5117C117.051 58.6758 116.445 58.918 115.953 59.2383C115.406 59.5898 114.996 60.0391 114.723 60.5859C114.449 61.125 114.312 61.7461 114.312 62.4492C114.312 62.9961 114.422 63.5039 114.641 63.9727C114.859 64.4336 115.164 64.832 115.555 65.168C115.945 65.5039 116.41 65.7656 116.949 65.9531C117.496 66.1406 118.094 66.2344 118.742 66.2344C119.141 66.2344 119.512 66.1953 119.855 66.1172C120.199 66.0469 120.516 65.9453 120.805 65.8125C121.086 65.6875 121.344 65.5391 121.578 65.3672C121.812 65.1953 122.02 65.0117 122.199 64.8164C122.238 65.043 122.285 65.2578 122.34 65.4609C122.395 65.6641 122.461 65.8438 122.539 66ZM119.434 63.7148C119.129 63.7148 118.859 63.6797 118.625 63.6094C118.398 63.5312 118.207 63.4297 118.051 63.3047C117.895 63.1719 117.773 63.0117 117.688 62.8242C117.609 62.6289 117.57 62.418 117.57 62.1914C117.57 61.9023 117.625 61.6367 117.734 61.3945C117.844 61.1445 118.012 60.9297 118.238 60.75C118.465 60.5781 118.758 60.4453 119.117 60.3516C119.477 60.25 119.91 60.1992 120.418 60.1992H122.082V62.3789C121.988 62.543 121.859 62.707 121.695 62.8711C121.531 63.0273 121.336 63.168 121.109 63.293C120.883 63.418 120.629 63.5195 120.348 63.5977C120.066 63.6758 119.762 63.7148 119.434 63.7148ZM129.031 66H132.301V56.9883C132.41 56.8164 132.531 56.6602 132.664 56.5195C132.797 56.3789 132.945 56.2578 133.109 56.1562C133.312 56.0156 133.543 55.9102 133.801 55.8398C134.066 55.7695 134.355 55.7344 134.668 55.7344C135.043 55.7344 135.379 55.7734 135.676 55.8516C135.973 55.9219 136.227 56.0508 136.438 56.2383C136.648 56.4258 136.809 56.6836 136.918 57.0117C137.035 57.332 137.094 57.7422 137.094 58.2422V66H140.352V58.1953C140.352 57.2734 140.242 56.4922 140.023 55.8516C139.812 55.2031 139.516 54.6719 139.133 54.2578C138.742 53.8516 138.281 53.5547 137.75 53.3672C137.219 53.1797 136.633 53.0859 135.992 53.0859C135.492 53.0859 135.02 53.1562 134.574 53.2969C134.129 53.4375 133.719 53.6406 133.344 53.9062C133.125 54.0625 132.918 54.2383 132.723 54.4336C132.527 54.6289 132.348 54.8438 132.184 55.0781L131.984 53.3203H129.031V66ZM149.422 50.2148H146.164V53.3203H143.27V55.7227H146.164V61.4883C146.164 62.3242 146.273 63.043 146.492 63.6445C146.711 64.2383 147.023 64.7266 147.43 65.1094C147.828 65.5 148.309 65.7891 148.871 65.9766C149.441 66.1562 150.074 66.2461 150.77 66.2461C151.129 66.2461 151.492 66.2266 151.859 66.1875C152.234 66.1562 152.594 66.1094 152.938 66.0469C153.281 65.9844 153.605 65.9062 153.91 65.8125C154.215 65.7109 154.48 65.5938 154.707 65.4609L154.391 63.2227C154.242 63.2617 154.062 63.3008 153.852 63.3398C153.648 63.3789 153.43 63.4141 153.195 63.4453C152.953 63.4844 152.699 63.5156 152.434 63.5391C152.176 63.5625 151.922 63.5742 151.672 63.5742C151.328 63.5742 151.016 63.5352 150.734 63.457C150.461 63.3789 150.227 63.2461 150.031 63.0586C149.836 62.8789 149.684 62.6367 149.574 62.332C149.473 62.0195 149.422 61.6328 149.422 61.1719V55.7227H154.156V53.3203H149.422V50.2148ZM169.59 60.6562H166.297C166.266 61.1719 166.18 61.6133 166.039 61.9805C165.898 62.3477 165.707 62.6484 165.465 62.8828C165.223 63.1172 164.93 63.2891 164.586 63.3984C164.242 63.5078 163.855 63.5625 163.426 63.5625C163.105 63.5625 162.812 63.5273 162.547 63.457C162.289 63.3789 162.055 63.2617 161.844 63.1055C161.648 62.9648 161.473 62.7891 161.316 62.5781C161.168 62.3672 161.039 62.125 160.93 61.8516C160.773 61.4531 160.656 60.9883 160.578 60.457C160.508 59.918 160.473 59.3086 160.473 58.6289V56.3086C160.473 55.8086 160.496 55.3438 160.543 54.9141C160.59 54.4766 160.664 54.0781 160.766 53.7188C160.898 53.2578 161.074 52.8555 161.293 52.5117C161.52 52.1602 161.793 51.8906 162.113 51.7031C162.301 51.5938 162.504 51.5117 162.723 51.457C162.949 51.4023 163.191 51.375 163.449 51.375C163.934 51.375 164.348 51.4414 164.691 51.5742C165.043 51.6992 165.336 51.8867 165.57 52.1367C165.797 52.3945 165.969 52.7148 166.086 53.0977C166.211 53.4805 166.289 53.9258 166.32 54.4336H169.602C169.523 53.543 169.336 52.7422 169.039 52.0312C168.742 51.3203 168.336 50.7188 167.82 50.2266C167.305 49.7344 166.68 49.3555 165.945 49.0898C165.219 48.8242 164.387 48.6914 163.449 48.6914C162.816 48.6914 162.223 48.7734 161.668 48.9375C161.121 49.0938 160.617 49.3203 160.156 49.6172C159.641 49.9688 159.18 50.3984 158.773 50.9062C158.367 51.4141 158.039 51.9922 157.789 52.6406C157.57 53.1719 157.406 53.75 157.297 54.375C157.188 54.9922 157.133 55.6445 157.133 56.332V58.6289C157.133 59.3633 157.191 60.0586 157.309 60.7148C157.434 61.3711 157.609 61.9727 157.836 62.5195C158.07 63.0664 158.355 63.5664 158.691 64.0195C159.035 64.4727 159.426 64.8594 159.863 65.1797C160.34 65.5234 160.875 65.7891 161.469 65.9766C162.07 66.1562 162.723 66.2461 163.426 66.2461C164.316 66.2461 165.129 66.1172 165.863 65.8594C166.598 65.5938 167.23 65.2188 167.762 64.7344C168.293 64.25 168.715 63.6641 169.027 62.9766C169.348 62.2891 169.535 61.5156 169.59 60.6562ZM180.195 66H183.5V65.8008C183.336 65.4805 183.211 65.0977 183.125 64.6523C183.039 64.207 182.996 63.6445 182.996 62.9648V57.5273C182.996 56.793 182.859 56.1484 182.586 55.5938C182.312 55.0312 181.934 54.5664 181.449 54.1992C180.965 53.832 180.391 53.5547 179.727 53.3672C179.07 53.1797 178.359 53.0859 177.594 53.0859C176.742 53.0859 175.984 53.1953 175.32 53.4141C174.664 53.625 174.109 53.9141 173.656 54.2812C173.195 54.6484 172.844 55.0742 172.602 55.5586C172.367 56.043 172.25 56.5547 172.25 57.0938H175.508C175.508 56.8672 175.539 56.6602 175.602 56.4727C175.672 56.2852 175.777 56.125 175.918 55.9922C176.074 55.8438 176.277 55.7305 176.527 55.6523C176.777 55.5664 177.074 55.5234 177.418 55.5234C177.809 55.5234 178.148 55.5742 178.438 55.6758C178.734 55.7695 178.98 55.9062 179.176 56.0859C179.363 56.2578 179.504 56.4648 179.598 56.707C179.691 56.9414 179.738 57.207 179.738 57.5039V58.2539H177.922C176.984 58.2539 176.152 58.3398 175.426 58.5117C174.707 58.6758 174.102 58.918 173.609 59.2383C173.062 59.5898 172.652 60.0391 172.379 60.5859C172.105 61.125 171.969 61.7461 171.969 62.4492C171.969 62.9961 172.078 63.5039 172.297 63.9727C172.516 64.4336 172.82 64.832 173.211 65.168C173.602 65.5039 174.066 65.7656 174.605 65.9531C175.152 66.1406 175.75 66.2344 176.398 66.2344C176.797 66.2344 177.168 66.1953 177.512 66.1172C177.855 66.0469 178.172 65.9453 178.461 65.8125C178.742 65.6875 179 65.5391 179.234 65.3672C179.469 65.1953 179.676 65.0117 179.855 64.8164C179.895 65.043 179.941 65.2578 179.996 65.4609C180.051 65.6641 180.117 65.8438 180.195 66ZM177.09 63.7148C176.785 63.7148 176.516 63.6797 176.281 63.6094C176.055 63.5312 175.863 63.4297 175.707 63.3047C175.551 63.1719 175.43 63.0117 175.344 62.8242C175.266 62.6289 175.227 62.418 175.227 62.1914C175.227 61.9023 175.281 61.6367 175.391 61.3945C175.5 61.1445 175.668 60.9297 175.895 60.75C176.121 60.5781 176.414 60.4453 176.773 60.3516C177.133 60.25 177.566 60.1992 178.074 60.1992H179.738V62.3789C179.645 62.543 179.516 62.707 179.352 62.8711C179.188 63.0273 178.992 63.168 178.766 63.293C178.539 63.418 178.285 63.5195 178.004 63.5977C177.723 63.6758 177.418 63.7148 177.09 63.7148ZM194.867 62.5195C194.867 62.7148 194.816 62.8945 194.715 63.0586C194.621 63.2227 194.477 63.3672 194.281 63.4922C194.078 63.6172 193.816 63.7188 193.496 63.7969C193.184 63.8672 192.816 63.9023 192.395 63.9023C192.043 63.9023 191.699 63.8672 191.363 63.7969C191.035 63.7266 190.742 63.6133 190.484 63.457C190.227 63.3086 190.016 63.1133 189.852 62.8711C189.688 62.6211 189.594 62.3242 189.57 61.9805H186.465C186.465 62.4961 186.59 63.0117 186.84 63.5273C187.098 64.0352 187.473 64.4883 187.965 64.8867C188.457 65.293 189.066 65.6211 189.793 65.8711C190.527 66.1211 191.371 66.2461 192.324 66.2461C193.191 66.2461 193.977 66.1523 194.68 65.9648C195.383 65.7695 195.984 65.5 196.484 65.1562C196.977 64.8125 197.355 64.4062 197.621 63.9375C197.895 63.4609 198.031 62.9414 198.031 62.3789C198.031 61.7695 197.895 61.2461 197.621 60.8086C197.355 60.3633 196.984 59.9844 196.508 59.6719C196.031 59.3672 195.465 59.1172 194.809 58.9219C194.152 58.7266 193.441 58.5664 192.676 58.4414C192.145 58.3633 191.707 58.2734 191.363 58.1719C191.02 58.0625 190.75 57.9414 190.555 57.8086C190.352 57.6836 190.211 57.543 190.133 57.3867C190.055 57.2227 190.016 57.0469 190.016 56.8594C190.016 56.6719 190.059 56.4961 190.145 56.332C190.238 56.1602 190.371 56.0117 190.543 55.8867C190.73 55.7461 190.973 55.6367 191.27 55.5586C191.566 55.4805 191.914 55.4414 192.312 55.4414C192.781 55.4414 193.18 55.5 193.508 55.6172C193.844 55.7344 194.109 55.8906 194.305 56.0859C194.445 56.2344 194.551 56.4023 194.621 56.5898C194.691 56.7695 194.727 56.9648 194.727 57.1758H197.984C197.984 56.5898 197.855 56.0469 197.598 55.5469C197.34 55.0469 196.969 54.6133 196.484 54.2461C195.992 53.8867 195.395 53.6055 194.691 53.4023C193.988 53.1914 193.195 53.0859 192.312 53.0859C191.469 53.0859 190.711 53.1914 190.039 53.4023C189.367 53.6133 188.797 53.8984 188.328 54.2578C187.859 54.6172 187.5 55.0352 187.25 55.5117C187 55.9883 186.875 56.4883 186.875 57.0117C186.875 57.5508 186.996 58.0273 187.238 58.4414C187.488 58.8555 187.832 59.2188 188.27 59.5312C188.707 59.8516 189.23 60.125 189.84 60.3516C190.457 60.5703 191.137 60.7539 191.879 60.9023C192.465 61.0117 192.949 61.1211 193.332 61.2305C193.715 61.3398 194.023 61.457 194.258 61.582C194.484 61.7148 194.641 61.8555 194.727 62.0039C194.82 62.1523 194.867 62.3242 194.867 62.5195ZM204.359 55.0664V48H201.102V66H204.359V56.8477C204.484 56.6836 204.621 56.5352 204.77 56.4023C204.926 56.2695 205.098 56.1562 205.285 56.0625C205.488 55.9531 205.715 55.8711 205.965 55.8164C206.215 55.7617 206.484 55.7344 206.773 55.7344C207.148 55.7344 207.484 55.7852 207.781 55.8867C208.078 55.9805 208.332 56.1289 208.543 56.332C208.754 56.5352 208.914 56.8008 209.023 57.1289C209.141 57.457 209.199 57.8477 209.199 58.3008V66H212.457V58.3242C212.457 57.3945 212.344 56.6016 212.117 55.9453C211.898 55.2812 211.59 54.7383 211.191 54.3164C210.793 53.8945 210.316 53.5859 209.762 53.3906C209.207 53.1875 208.598 53.0859 207.934 53.0859C207.48 53.0859 207.051 53.1523 206.645 53.2852C206.238 53.418 205.867 53.6055 205.531 53.8477C205.312 54.0039 205.102 54.1875 204.898 54.3984C204.703 54.6016 204.523 54.8242 204.359 55.0664Z" fill="white"/>
<path d="M290.162 51.7001C288.469 51.7001 286.81 51.7917 285.21 51.9687V37.5472C285.21 33.6509 277.124 31.6119 269.137 31.6119C261.151 31.6119 253.064 33.6509 253.064 37.5472V42.9271C251.679 42.7983 250.271 42.7122 248.838 42.7122C240.851 42.7122 232.766 44.7512 232.765 48.6467V78.5877C232.765 82.484 240.851 84.5222 248.838 84.5222C250.271 84.5222 251.679 84.4361 253.064 84.3073V85.452C253.064 89.3483 261.15 91.3873 269.137 91.3873C277.125 91.3873 285.21 89.3483 285.21 85.452V81.265C286.81 81.442 288.468 81.5336 290.162 81.5336C298.149 81.5336 306.235 79.4946 306.235 75.5984V57.6337C306.235 53.7383 298.149 51.7001 290.162 51.7001ZM269.137 83.0291C260.271 83.0291 255.434 80.6741 255.434 79.4638V76.7296C258.416 78.4984 263.797 79.4109 269.137 79.4109C274.478 79.4109 279.858 78.4984 282.84 76.7296V79.4638C282.84 80.6741 278.004 83.0291 269.137 83.0291ZM255.434 58.7658C258.416 60.5346 263.797 61.4471 269.137 61.4471C274.478 61.4471 279.858 60.5346 282.84 58.7658V60.5891V61.5C282.84 62.7095 278.004 65.0645 269.137 65.0645C260.271 65.0645 255.434 62.7095 255.434 61.5V58.7658ZM255.434 64.7532C258.416 66.522 263.797 67.4345 269.137 67.4345C274.478 67.4345 279.858 66.522 282.84 64.7532V67.4882C282.84 68.6977 278.004 71.0527 269.137 71.0527C260.271 71.0527 255.434 68.6977 255.434 67.4882V64.7532ZM255.434 70.7414C258.416 72.5102 263.797 73.4227 269.137 73.4227C274.478 73.4227 279.858 72.5102 282.84 70.7414V73.4764C282.84 74.6859 278.004 77.0409 269.137 77.0409C260.271 77.0409 255.434 74.6859 255.434 73.4764V70.7414ZM269.137 59.0771C260.271 59.0771 255.434 56.7221 255.434 55.5118V54.1151V52.7776C258.416 54.5464 263.797 55.4589 269.137 55.4589C274.478 55.4589 279.858 54.5464 282.84 52.7776V55.5118C282.84 56.7221 278.004 59.0771 269.137 59.0771ZM269.137 53.0889C260.271 53.0889 255.434 50.7339 255.434 49.5236V46.7894C258.416 48.5582 263.797 49.4707 269.137 49.4707C274.478 49.4707 279.858 48.5582 282.84 46.7894V49.5236C282.84 50.7339 278.004 53.0889 269.137 53.0889ZM269.137 47.0999C260.271 47.0999 255.434 44.7449 255.434 43.5354V43.1799V40.8052C255.456 40.8186 255.481 40.8304 255.504 40.8431C255.654 40.9308 255.809 41.0161 255.971 41.099C255.992 41.1093 256.01 41.1204 256.031 41.1306C256.218 41.2254 256.414 41.3171 256.617 41.4064C256.658 41.4245 256.7 41.4419 256.742 41.4601C256.923 41.5383 257.11 41.6141 257.302 41.6876C257.327 41.6971 257.351 41.7073 257.377 41.7168C260.461 42.8837 264.812 43.4825 269.137 43.4825C273.464 43.4825 277.818 42.8829 280.901 41.7152C280.923 41.7073 280.944 41.6987 280.966 41.6908C281.162 41.6157 281.352 41.5383 281.537 41.4585C281.576 41.4419 281.615 41.4253 281.654 41.4087C281.858 41.3187 282.055 41.227 282.245 41.1314C282.262 41.1227 282.278 41.1133 282.296 41.1046C282.461 41.02 282.619 40.9331 282.772 40.8439C282.794 40.8312 282.819 40.8194 282.841 40.8067V43.5378C282.84 44.7457 278.004 47.0999 269.137 47.0999ZM269.137 33.9819C278.004 33.9819 282.84 36.3369 282.84 37.5472C282.84 38.7567 278.004 41.1117 269.137 41.1117C260.271 41.1117 255.434 38.7567 255.434 37.5472C255.434 36.3369 260.271 33.9819 269.137 33.9819ZM248.838 45.0822C250.269 45.0822 251.686 45.1502 253.064 45.286V51.9884C252.715 52.0224 252.367 52.0595 252.014 52.0848C251.768 52.103 251.526 52.1251 251.279 52.1385C250.472 52.1835 249.658 52.212 248.838 52.212C246.622 52.212 244.657 52.065 242.957 51.8249C237.857 51.106 235.136 49.5544 235.136 48.6467C235.136 47.4372 239.972 45.0822 248.838 45.0822ZM235.135 51.9047C235.151 51.9141 235.17 51.9228 235.186 51.9323C235.395 52.054 235.615 52.1725 235.846 52.2862C235.886 52.3052 235.926 52.3242 235.965 52.3431C236.208 52.4592 236.458 52.573 236.723 52.6797C236.724 52.6797 236.724 52.6797 236.724 52.6804C236.987 52.7871 237.262 52.8874 237.545 52.9854C237.596 53.0028 237.645 53.0201 237.696 53.0375C237.97 53.13 238.253 53.2184 238.544 53.3022C238.599 53.318 238.654 53.3338 238.711 53.3496C239.015 53.4349 239.325 53.5178 239.644 53.5945C239.656 53.5976 239.668 53.6 239.679 53.6024C240.009 53.6814 240.347 53.7549 240.69 53.8244C240.719 53.8299 240.746 53.8362 240.775 53.8417C241.125 53.9113 241.483 53.976 241.846 54.0353C241.875 54.04 241.902 54.0448 241.931 54.0487C244.101 54.4019 246.473 54.582 248.839 54.582C248.897 54.582 248.954 54.5772 249.012 54.5764C249.857 54.5741 250.7 54.5488 251.534 54.5006C251.593 54.4974 251.653 54.4951 251.712 54.4919C252.167 54.4643 252.619 54.4303 253.066 54.3892V57.979C251.698 58.1156 250.291 58.2041 248.844 58.2041C239.975 58.2041 235.137 55.8452 235.137 54.6333V51.9047H235.135ZM235.135 57.8897C238.118 59.6601 243.5 60.5741 248.842 60.5741C250.285 60.5741 251.69 60.4872 253.064 60.3585V63.968C251.696 64.1046 250.289 64.1931 248.842 64.1931C239.973 64.1931 235.135 61.8342 235.135 60.6223V57.8897ZM235.135 63.8779C238.118 65.6483 243.5 66.5623 248.842 66.5623C250.285 66.5623 251.69 66.4754 253.064 66.3467V69.9562C251.696 70.0928 250.289 70.1813 248.842 70.1813C239.973 70.1813 235.135 67.8224 235.135 66.6105V63.8779ZM235.135 69.8661C238.118 71.6365 243.5 72.5505 248.842 72.5505C250.285 72.5505 251.69 72.4636 253.064 72.3349V75.9444C251.696 76.081 250.289 76.1695 248.842 76.1695C239.973 76.1695 235.135 73.8106 235.135 72.5987V69.8661ZM248.838 82.153C239.971 82.153 235.135 79.798 235.135 78.5885V75.8543C238.118 77.6247 243.5 78.5387 248.842 78.5387C250.285 78.5387 251.69 78.4518 253.064 78.3231V81.95C251.687 82.085 250.27 82.153 248.838 82.153ZM269.137 89.0181C260.271 89.0181 255.434 86.6631 255.434 85.4528V84.0561V82.7186C258.416 84.4874 263.797 85.3999 269.137 85.3999C274.478 85.3999 279.858 84.4874 282.84 82.7186V85.4528C282.84 86.6631 278.004 89.0181 269.137 89.0181ZM290.162 79.1636C288.463 79.1636 286.803 79.0688 285.21 78.8832V75.2808C286.8 75.4538 288.457 75.5446 290.159 75.5446C295.5 75.5446 300.882 74.6322 303.865 72.8642V75.5999C303.865 76.8086 299.029 79.1636 290.162 79.1636ZM290.159 73.1738C288.45 73.1738 286.793 73.0759 285.21 72.8926V69.2926C286.8 69.4656 288.458 69.5556 290.159 69.5556C295.5 69.5556 300.882 68.6432 303.865 66.8752V69.6109C303.865 70.8204 299.027 73.1738 290.159 73.1738ZM290.159 67.1856C288.451 67.1856 286.793 67.0877 285.21 66.9044V63.3036C285.243 63.3075 285.278 63.3099 285.311 63.3131C285.44 63.3273 285.572 63.3375 285.701 63.3502C286.03 63.3826 286.359 63.4126 286.694 63.4371C286.93 63.4553 287.168 63.4687 287.405 63.4829C287.615 63.4948 287.823 63.5058 288.033 63.5153C288.344 63.5295 288.655 63.5406 288.969 63.5485C289.061 63.5508 289.154 63.5516 289.246 63.5532C289.551 63.5587 289.854 63.569 290.162 63.569C294.613 63.569 299.093 62.9354 302.189 61.6999C302.197 61.6967 302.205 61.6936 302.214 61.6904C302.491 61.579 302.755 61.4621 303.009 61.3412C303.049 61.3223 303.088 61.3041 303.128 61.2851C303.367 61.1682 303.594 61.0465 303.81 60.9209C303.827 60.9107 303.848 60.902 303.865 60.8917V63.6235C303.865 64.8322 299.027 67.1856 290.159 67.1856ZM290.162 61.199C289.399 61.199 288.647 61.1737 287.902 61.1358C287.759 61.1287 287.616 61.1224 287.473 61.1137C286.758 61.0703 286.051 61.0094 285.358 60.9312C285.309 60.9257 285.26 60.9186 285.211 60.913V54.3505C286.803 54.1641 288.465 54.0701 290.163 54.0701C299.029 54.0701 303.866 56.425 303.866 57.6345C303.866 58.844 299.029 61.199 290.162 61.199Z" fill="white"/>
</svg>
