<svg width="372" height="47" viewBox="0 0 372 47" fill="none" xmlns="http://www.w3.org/2000/svg">
<rect width="372" height="47" rx="5" fill="#C4C4C4"/>
<rect x="0.5" y="0.5" width="371" height="46" rx="4.5" stroke="#7E7D7D" stroke-opacity="0.1"/>
<path d="M126.969 27.6875C126.969 28.1562 126.867 28.5625 126.664 28.9062C126.461 29.2422 126.199 29.5195 125.879 29.7383C125.559 29.9648 125.191 30.1328 124.777 30.2422C124.371 30.3438 123.957 30.3945 123.535 30.3945C123.004 30.3945 122.512 30.3242 122.059 30.1836C121.613 30.0352 121.219 29.8164 120.875 29.5273C120.531 29.2461 120.25 28.9023 120.031 28.4961C119.812 28.082 119.668 27.6094 119.598 27.0781H117.383C117.406 27.8125 117.566 28.4805 117.863 29.082C118.168 29.6758 118.578 30.1953 119.094 30.6406C119.672 31.1562 120.352 31.5508 121.133 31.8242C121.922 32.0977 122.723 32.2344 123.535 32.2344C124.215 32.2344 124.895 32.1406 125.574 31.9531C126.254 31.7578 126.863 31.4688 127.402 31.0859C127.941 30.7109 128.379 30.2383 128.715 29.668C129.059 29.0977 129.23 28.4297 129.23 27.6641C129.23 26.9062 129.07 26.2383 128.75 25.6602C128.438 25.082 128.023 24.5938 127.508 24.1953C126.984 23.7656 126.406 23.4141 125.773 23.1406C125.141 22.8594 124.508 22.6211 123.875 22.4258C123.492 22.3086 123.082 22.1719 122.645 22.0156C122.215 21.8594 121.816 21.6641 121.449 21.4297C121.074 21.1953 120.766 20.9102 120.523 20.5742C120.281 20.2305 120.156 19.8125 120.148 19.3203C120.148 18.8672 120.238 18.4688 120.418 18.125C120.605 17.7812 120.855 17.4922 121.168 17.2578C121.473 17.0234 121.82 16.8477 122.211 16.7305C122.609 16.6133 123.016 16.5547 123.43 16.5547C123.945 16.5547 124.406 16.6367 124.812 16.8008C125.227 16.957 125.582 17.1797 125.879 17.4688C126.176 17.7578 126.414 18.1055 126.594 18.5117C126.773 18.9102 126.895 19.3555 126.957 19.8477H129.184C129.168 19.0664 129 18.3594 128.68 17.7266C128.359 17.0938 127.934 16.5547 127.402 16.1094C126.871 15.6641 126.262 15.3203 125.574 15.0781C124.887 14.8281 124.172 14.7031 123.43 14.7031C122.758 14.7031 122.09 14.8086 121.426 15.0195C120.762 15.2227 120.168 15.5234 119.645 15.9219C119.121 16.3203 118.695 16.8086 118.367 17.3867C118.047 17.9648 117.887 18.6211 117.887 19.3555C117.887 20.0898 118.047 20.7305 118.367 21.2773C118.695 21.8164 119.117 22.2852 119.633 22.6836C120.141 23.0742 120.703 23.4102 121.32 23.6914C121.945 23.9648 122.559 24.1992 123.16 24.3945C123.574 24.5273 124.004 24.6758 124.449 24.8398C124.902 25.0039 125.316 25.207 125.691 25.4492C126.066 25.6992 126.371 26.0039 126.605 26.3633C126.848 26.7227 126.969 27.1641 126.969 27.6875ZM134.621 21.207V14H132.453V32H134.621V22.7891C134.777 22.5391 134.953 22.3125 135.148 22.1094C135.352 21.8984 135.57 21.7148 135.805 21.5586C136.102 21.3555 136.426 21.1992 136.777 21.0898C137.129 20.9805 137.5 20.9258 137.891 20.9258C138.367 20.918 138.789 20.9844 139.156 21.125C139.523 21.2578 139.828 21.4609 140.07 21.7344C140.297 21.9844 140.469 22.3008 140.586 22.6836C140.703 23.0586 140.762 23.4961 140.762 23.9961V32H142.93V24.0195C142.93 23.168 142.824 22.4336 142.613 21.8164C142.41 21.1914 142.117 20.6758 141.734 20.2695C141.352 19.8633 140.887 19.5664 140.34 19.3789C139.801 19.1836 139.199 19.0859 138.535 19.0859C138.027 19.0938 137.547 19.168 137.094 19.3086C136.648 19.4492 136.238 19.6562 135.863 19.9297C135.629 20.0938 135.406 20.2852 135.195 20.5039C134.984 20.7148 134.793 20.9492 134.621 21.207ZM146.258 25.543V25.8008C146.258 26.7148 146.391 27.5625 146.656 28.3438C146.922 29.125 147.305 29.8047 147.805 30.3828C148.297 30.9609 148.898 31.4141 149.609 31.7422C150.328 32.0703 151.137 32.2344 152.035 32.2344C152.926 32.2344 153.727 32.0703 154.438 31.7422C155.148 31.4141 155.754 30.9609 156.254 30.3828C156.746 29.8047 157.125 29.125 157.391 28.3438C157.656 27.5625 157.789 26.7148 157.789 25.8008V25.543C157.789 24.6289 157.656 23.7812 157.391 23C157.125 22.2109 156.746 21.5273 156.254 20.9492C155.754 20.3711 155.145 19.918 154.426 19.5898C153.715 19.2539 152.91 19.0859 152.012 19.0859C151.121 19.0859 150.32 19.2539 149.609 19.5898C148.898 19.918 148.297 20.3711 147.805 20.9492C147.305 21.5273 146.922 22.2109 146.656 23C146.391 23.7812 146.258 24.6289 146.258 25.543ZM148.426 25.8008V25.543C148.426 24.9258 148.5 24.3359 148.648 23.7734C148.797 23.2031 149.023 22.7031 149.328 22.2734C149.625 21.8438 149.996 21.5039 150.441 21.2539C150.887 20.9961 151.41 20.8672 152.012 20.8672C152.613 20.8672 153.137 20.9961 153.582 21.2539C154.035 21.5039 154.414 21.8438 154.719 22.2734C155.016 22.7031 155.238 23.2031 155.387 23.7734C155.543 24.3359 155.621 24.9258 155.621 25.543V25.8008C155.621 26.4258 155.547 27.0234 155.398 27.5938C155.25 28.1562 155.027 28.6523 154.73 29.082C154.426 29.5117 154.047 29.8516 153.594 30.1016C153.148 30.3516 152.629 30.4766 152.035 30.4766C151.434 30.4766 150.906 30.3516 150.453 30.1016C150 29.8516 149.625 29.5117 149.328 29.082C149.023 28.6523 148.797 28.1562 148.648 27.5938C148.5 27.0234 148.426 26.4258 148.426 25.8008ZM162.5 32H164.211L166.168 24.2305L166.484 22.2617L166.812 24.2305L168.793 32H170.504L173.199 19.3203H171.277L169.871 27.4062L169.555 29.3984L169.215 27.4062L167.199 19.3203H165.805L163.777 27.4062L163.461 29.2227L163.203 27.4062L161.727 19.3203H159.805L162.5 32ZM192.488 14.9375H189.805V32H191.914V25.1914L191.738 18.3125L194.633 27.2539H195.875L199.027 18.0664L198.852 25.1914V32H200.961V14.9375H198.266L195.266 23.4688L192.488 14.9375ZM203.914 25.543V25.8008C203.914 26.7148 204.047 27.5625 204.312 28.3438C204.578 29.125 204.961 29.8047 205.461 30.3828C205.953 30.9609 206.555 31.4141 207.266 31.7422C207.984 32.0703 208.793 32.2344 209.691 32.2344C210.582 32.2344 211.383 32.0703 212.094 31.7422C212.805 31.4141 213.41 30.9609 213.91 30.3828C214.402 29.8047 214.781 29.125 215.047 28.3438C215.312 27.5625 215.445 26.7148 215.445 25.8008V25.543C215.445 24.6289 215.312 23.7812 215.047 23C214.781 22.2109 214.402 21.5273 213.91 20.9492C213.41 20.3711 212.801 19.918 212.082 19.5898C211.371 19.2539 210.566 19.0859 209.668 19.0859C208.777 19.0859 207.977 19.2539 207.266 19.5898C206.555 19.918 205.953 20.3711 205.461 20.9492C204.961 21.5273 204.578 22.2109 204.312 23C204.047 23.7812 203.914 24.6289 203.914 25.543ZM206.082 25.8008V25.543C206.082 24.9258 206.156 24.3359 206.305 23.7734C206.453 23.2031 206.68 22.7031 206.984 22.2734C207.281 21.8438 207.652 21.5039 208.098 21.2539C208.543 20.9961 209.066 20.8672 209.668 20.8672C210.27 20.8672 210.793 20.9961 211.238 21.2539C211.691 21.5039 212.07 21.8438 212.375 22.2734C212.672 22.7031 212.895 23.2031 213.043 23.7734C213.199 24.3359 213.277 24.9258 213.277 25.543V25.8008C213.277 26.4258 213.203 27.0234 213.055 27.5938C212.906 28.1562 212.684 28.6523 212.387 29.082C212.082 29.5117 211.703 29.8516 211.25 30.1016C210.805 30.3516 210.285 30.4766 209.691 30.4766C209.09 30.4766 208.562 30.3516 208.109 30.1016C207.656 29.8516 207.281 29.5117 206.984 29.082C206.68 28.6523 206.453 28.1562 206.305 27.5938C206.156 27.0234 206.082 26.4258 206.082 25.8008ZM227.246 19.0859C226.324 19.0859 225.5 19.2891 224.773 19.6953C224.055 20.0938 223.438 20.6406 222.922 21.3359L222.91 21.0195L222.816 19.3203H220.754V32H222.934V23.8672C223.074 23.4766 223.25 23.125 223.461 22.8125C223.68 22.4922 223.934 22.2227 224.223 22.0039C224.543 21.7539 224.918 21.5664 225.348 21.4414C225.777 21.3086 226.258 21.2422 226.789 21.2422C227.203 21.2422 227.598 21.2656 227.973 21.3125C228.355 21.3516 228.758 21.418 229.18 21.5117L229.473 19.3906C229.254 19.2969 228.926 19.2227 228.488 19.168C228.059 19.1133 227.645 19.0859 227.246 19.0859ZM238.953 32.2344C240.188 32.2344 241.223 31.9883 242.059 31.4961C242.902 30.9961 243.535 30.4258 243.957 29.7852L242.633 28.7539C242.234 29.2695 241.734 29.6836 241.133 29.9961C240.531 30.3086 239.844 30.4648 239.07 30.4648C238.484 30.4648 237.949 30.3555 237.465 30.1367C236.98 29.918 236.566 29.6172 236.223 29.2344C235.887 28.875 235.621 28.4609 235.426 27.9922C235.238 27.5234 235.117 26.9805 235.062 26.3633V26.2812H244.121V25.3086C244.121 24.4258 244.008 23.6055 243.781 22.8477C243.562 22.0898 243.227 21.4297 242.773 20.8672C242.32 20.3125 241.75 19.8789 241.062 19.5664C240.383 19.2461 239.586 19.0859 238.672 19.0859C237.945 19.0859 237.234 19.2344 236.539 19.5312C235.852 19.8281 235.238 20.2539 234.699 20.8086C234.152 21.3711 233.715 22.0586 233.387 22.8711C233.059 23.6758 232.895 24.5898 232.895 25.6133V26.1055C232.895 26.9883 233.043 27.8047 233.34 28.5547C233.637 29.3047 234.051 29.9531 234.582 30.5C235.113 31.0469 235.75 31.4727 236.492 31.7773C237.242 32.082 238.062 32.2344 238.953 32.2344ZM238.672 20.8672C239.227 20.8672 239.703 20.9688 240.102 21.1719C240.508 21.375 240.844 21.6406 241.109 21.9688C241.375 22.2969 241.582 22.6875 241.73 23.1406C241.879 23.5859 241.953 24.0039 241.953 24.3945V24.5H235.133C235.219 23.9141 235.367 23.3984 235.578 22.9531C235.797 22.5 236.062 22.1172 236.375 21.8047C236.688 21.5 237.039 21.2695 237.43 21.1133C237.82 20.9492 238.234 20.8672 238.672 20.8672Z" fill="#FFFCFC"/>
</svg>
